%TF.GenerationSoftware,KiCad,Pcbnew,7.0.10*%
%TF.CreationDate,2024-02-09T21:47:44+00:00*%
%TF.ProjectId,led-strip,6c65642d-7374-4726-9970-2e6b69636164,rev?*%
%TF.SameCoordinates,Original*%
%TF.FileFunction,Legend,Top*%
%TF.FilePolarity,Positive*%
%FSLAX46Y46*%
G04 Gerber Fmt 4.6, Leading zero omitted, Abs format (unit mm)*
G04 Created by KiCad (PCBNEW 7.0.10) date 2024-02-09 21:47:44*
%MOMM*%
%LPD*%
G01*
G04 APERTURE LIST*
%ADD10C,0.150000*%
%ADD11C,0.100000*%
%ADD12C,0.120000*%
%ADD13C,0.250000*%
G04 APERTURE END LIST*
D10*
X51466979Y-51228619D02*
X51466979Y-50228619D01*
X51466979Y-50228619D02*
X51705074Y-50228619D01*
X51705074Y-50228619D02*
X51847931Y-50276238D01*
X51847931Y-50276238D02*
X51943169Y-50371476D01*
X51943169Y-50371476D02*
X51990788Y-50466714D01*
X51990788Y-50466714D02*
X52038407Y-50657190D01*
X52038407Y-50657190D02*
X52038407Y-50800047D01*
X52038407Y-50800047D02*
X51990788Y-50990523D01*
X51990788Y-50990523D02*
X51943169Y-51085761D01*
X51943169Y-51085761D02*
X51847931Y-51181000D01*
X51847931Y-51181000D02*
X51705074Y-51228619D01*
X51705074Y-51228619D02*
X51466979Y-51228619D01*
X52657455Y-50228619D02*
X52847931Y-50228619D01*
X52847931Y-50228619D02*
X52943169Y-50276238D01*
X52943169Y-50276238D02*
X53038407Y-50371476D01*
X53038407Y-50371476D02*
X53086026Y-50561952D01*
X53086026Y-50561952D02*
X53086026Y-50895285D01*
X53086026Y-50895285D02*
X53038407Y-51085761D01*
X53038407Y-51085761D02*
X52943169Y-51181000D01*
X52943169Y-51181000D02*
X52847931Y-51228619D01*
X52847931Y-51228619D02*
X52657455Y-51228619D01*
X52657455Y-51228619D02*
X52562217Y-51181000D01*
X52562217Y-51181000D02*
X52466979Y-51085761D01*
X52466979Y-51085761D02*
X52419360Y-50895285D01*
X52419360Y-50895285D02*
X52419360Y-50561952D01*
X52419360Y-50561952D02*
X52466979Y-50371476D01*
X52466979Y-50371476D02*
X52562217Y-50276238D01*
X52562217Y-50276238D02*
X52657455Y-50228619D01*
X49180979Y-51203219D02*
X49180979Y-50203219D01*
X49180979Y-50203219D02*
X49419074Y-50203219D01*
X49419074Y-50203219D02*
X49561931Y-50250838D01*
X49561931Y-50250838D02*
X49657169Y-50346076D01*
X49657169Y-50346076D02*
X49704788Y-50441314D01*
X49704788Y-50441314D02*
X49752407Y-50631790D01*
X49752407Y-50631790D02*
X49752407Y-50774647D01*
X49752407Y-50774647D02*
X49704788Y-50965123D01*
X49704788Y-50965123D02*
X49657169Y-51060361D01*
X49657169Y-51060361D02*
X49561931Y-51155600D01*
X49561931Y-51155600D02*
X49419074Y-51203219D01*
X49419074Y-51203219D02*
X49180979Y-51203219D01*
X50180979Y-51203219D02*
X50180979Y-50203219D01*
X47291788Y-50250838D02*
X47196550Y-50203219D01*
X47196550Y-50203219D02*
X47053693Y-50203219D01*
X47053693Y-50203219D02*
X46910836Y-50250838D01*
X46910836Y-50250838D02*
X46815598Y-50346076D01*
X46815598Y-50346076D02*
X46767979Y-50441314D01*
X46767979Y-50441314D02*
X46720360Y-50631790D01*
X46720360Y-50631790D02*
X46720360Y-50774647D01*
X46720360Y-50774647D02*
X46767979Y-50965123D01*
X46767979Y-50965123D02*
X46815598Y-51060361D01*
X46815598Y-51060361D02*
X46910836Y-51155600D01*
X46910836Y-51155600D02*
X47053693Y-51203219D01*
X47053693Y-51203219D02*
X47148931Y-51203219D01*
X47148931Y-51203219D02*
X47291788Y-51155600D01*
X47291788Y-51155600D02*
X47339407Y-51107980D01*
X47339407Y-51107980D02*
X47339407Y-50774647D01*
X47339407Y-50774647D02*
X47148931Y-50774647D01*
X44288322Y-50406419D02*
X44621655Y-51406419D01*
X44621655Y-51406419D02*
X44954988Y-50406419D01*
D11*
X66043942Y-371707791D02*
X66043942Y-371803030D01*
X66043942Y-371803030D02*
X65948704Y-371993506D01*
X65948704Y-371993506D02*
X65758228Y-372088744D01*
X65758228Y-372088744D02*
X64805847Y-372088744D01*
X64805847Y-372088744D02*
X64615371Y-372183982D01*
X64615371Y-372183982D02*
X64520133Y-372374458D01*
X64520133Y-372374458D02*
X64424895Y-372183982D01*
X64424895Y-372183982D02*
X64234419Y-372088744D01*
X64234419Y-372088744D02*
X63282038Y-372088744D01*
X63282038Y-372088744D02*
X63091561Y-371993506D01*
X63091561Y-371993506D02*
X62996323Y-371803030D01*
X62996323Y-371803030D02*
X62996323Y-371707791D01*
X66043942Y-370374458D02*
X66043942Y-370469697D01*
X66043942Y-370469697D02*
X65948704Y-370660173D01*
X65948704Y-370660173D02*
X65758228Y-370755411D01*
X65758228Y-370755411D02*
X64805847Y-370755411D01*
X64805847Y-370755411D02*
X64615371Y-370850649D01*
X64615371Y-370850649D02*
X64520133Y-371041125D01*
X64520133Y-371041125D02*
X64424895Y-370850649D01*
X64424895Y-370850649D02*
X64234419Y-370755411D01*
X64234419Y-370755411D02*
X63282038Y-370755411D01*
X63282038Y-370755411D02*
X63091561Y-370660173D01*
X63091561Y-370660173D02*
X62996323Y-370469697D01*
X62996323Y-370469697D02*
X62996323Y-370374458D01*
X63377276Y-368564935D02*
X63282038Y-368755411D01*
X63282038Y-368755411D02*
X63282038Y-369041125D01*
X63282038Y-369041125D02*
X63377276Y-369326840D01*
X63377276Y-369326840D02*
X63567752Y-369517316D01*
X63567752Y-369517316D02*
X63758228Y-369612554D01*
X63758228Y-369612554D02*
X64139180Y-369707792D01*
X64139180Y-369707792D02*
X64424895Y-369707792D01*
X64424895Y-369707792D02*
X64805847Y-369612554D01*
X64805847Y-369612554D02*
X64996323Y-369517316D01*
X64996323Y-369517316D02*
X65186800Y-369326840D01*
X65186800Y-369326840D02*
X65282038Y-369041125D01*
X65282038Y-369041125D02*
X65282038Y-368850649D01*
X65282038Y-368850649D02*
X65186800Y-368564935D01*
X65186800Y-368564935D02*
X65091561Y-368469697D01*
X65091561Y-368469697D02*
X64424895Y-368469697D01*
X64424895Y-368469697D02*
X64424895Y-368850649D01*
X65282038Y-367612554D02*
X63282038Y-367612554D01*
X63282038Y-366945887D02*
X63282038Y-365803030D01*
X65282038Y-366374459D02*
X63282038Y-366374459D01*
X65282038Y-365136363D02*
X63282038Y-365136363D01*
X64234419Y-365136363D02*
X64234419Y-363993506D01*
X65282038Y-363993506D02*
X63282038Y-363993506D01*
X64710609Y-363136363D02*
X64710609Y-362183982D01*
X65282038Y-363326839D02*
X63282038Y-362660173D01*
X63282038Y-362660173D02*
X65282038Y-361993506D01*
X65186800Y-361422077D02*
X65282038Y-361136363D01*
X65282038Y-361136363D02*
X65282038Y-360660172D01*
X65282038Y-360660172D02*
X65186800Y-360469696D01*
X65186800Y-360469696D02*
X65091561Y-360374458D01*
X65091561Y-360374458D02*
X64901085Y-360279220D01*
X64901085Y-360279220D02*
X64710609Y-360279220D01*
X64710609Y-360279220D02*
X64520133Y-360374458D01*
X64520133Y-360374458D02*
X64424895Y-360469696D01*
X64424895Y-360469696D02*
X64329657Y-360660172D01*
X64329657Y-360660172D02*
X64234419Y-361041125D01*
X64234419Y-361041125D02*
X64139180Y-361231601D01*
X64139180Y-361231601D02*
X64043942Y-361326839D01*
X64043942Y-361326839D02*
X63853466Y-361422077D01*
X63853466Y-361422077D02*
X63662990Y-361422077D01*
X63662990Y-361422077D02*
X63472514Y-361326839D01*
X63472514Y-361326839D02*
X63377276Y-361231601D01*
X63377276Y-361231601D02*
X63282038Y-361041125D01*
X63282038Y-361041125D02*
X63282038Y-360564934D01*
X63282038Y-360564934D02*
X63377276Y-360279220D01*
X65282038Y-359422077D02*
X63282038Y-359422077D01*
X64234419Y-359422077D02*
X64234419Y-358279220D01*
X65282038Y-358279220D02*
X63282038Y-358279220D01*
X66043942Y-357517315D02*
X66043942Y-357422077D01*
X66043942Y-357422077D02*
X65948704Y-357231601D01*
X65948704Y-357231601D02*
X65758228Y-357136363D01*
X65758228Y-357136363D02*
X64805847Y-357136363D01*
X64805847Y-357136363D02*
X64615371Y-357041125D01*
X64615371Y-357041125D02*
X64520133Y-356850649D01*
X64520133Y-356850649D02*
X64424895Y-357041125D01*
X64424895Y-357041125D02*
X64234419Y-357136363D01*
X64234419Y-357136363D02*
X63282038Y-357136363D01*
X63282038Y-357136363D02*
X63091561Y-357231601D01*
X63091561Y-357231601D02*
X62996323Y-357422077D01*
X62996323Y-357422077D02*
X62996323Y-357517315D01*
X66043942Y-356183982D02*
X66043942Y-356088744D01*
X66043942Y-356088744D02*
X65948704Y-355898268D01*
X65948704Y-355898268D02*
X65758228Y-355803030D01*
X65758228Y-355803030D02*
X64805847Y-355803030D01*
X64805847Y-355803030D02*
X64615371Y-355707792D01*
X64615371Y-355707792D02*
X64520133Y-355517316D01*
X64520133Y-355517316D02*
X64424895Y-355707792D01*
X64424895Y-355707792D02*
X64234419Y-355803030D01*
X64234419Y-355803030D02*
X63282038Y-355803030D01*
X63282038Y-355803030D02*
X63091561Y-355898268D01*
X63091561Y-355898268D02*
X62996323Y-356088744D01*
X62996323Y-356088744D02*
X62996323Y-356183982D01*
D10*
X46841880Y-85169211D02*
X46794261Y-85216831D01*
X46794261Y-85216831D02*
X46651404Y-85264450D01*
X46651404Y-85264450D02*
X46556166Y-85264450D01*
X46556166Y-85264450D02*
X46413309Y-85216831D01*
X46413309Y-85216831D02*
X46318071Y-85121592D01*
X46318071Y-85121592D02*
X46270452Y-85026354D01*
X46270452Y-85026354D02*
X46222833Y-84835878D01*
X46222833Y-84835878D02*
X46222833Y-84693021D01*
X46222833Y-84693021D02*
X46270452Y-84502545D01*
X46270452Y-84502545D02*
X46318071Y-84407307D01*
X46318071Y-84407307D02*
X46413309Y-84312069D01*
X46413309Y-84312069D02*
X46556166Y-84264450D01*
X46556166Y-84264450D02*
X46651404Y-84264450D01*
X46651404Y-84264450D02*
X46794261Y-84312069D01*
X46794261Y-84312069D02*
X46841880Y-84359688D01*
X47746642Y-85264450D02*
X47270452Y-85264450D01*
X47270452Y-85264450D02*
X47270452Y-84264450D01*
X48079976Y-84740640D02*
X48413309Y-84740640D01*
X48556166Y-85264450D02*
X48079976Y-85264450D01*
X48079976Y-85264450D02*
X48079976Y-84264450D01*
X48079976Y-84264450D02*
X48556166Y-84264450D01*
X48984738Y-85264450D02*
X48984738Y-84264450D01*
X48984738Y-84264450D02*
X49222833Y-84264450D01*
X49222833Y-84264450D02*
X49365690Y-84312069D01*
X49365690Y-84312069D02*
X49460928Y-84407307D01*
X49460928Y-84407307D02*
X49508547Y-84502545D01*
X49508547Y-84502545D02*
X49556166Y-84693021D01*
X49556166Y-84693021D02*
X49556166Y-84835878D01*
X49556166Y-84835878D02*
X49508547Y-85026354D01*
X49508547Y-85026354D02*
X49460928Y-85121592D01*
X49460928Y-85121592D02*
X49365690Y-85216831D01*
X49365690Y-85216831D02*
X49222833Y-85264450D01*
X49222833Y-85264450D02*
X48984738Y-85264450D01*
X49937119Y-84359688D02*
X49984738Y-84312069D01*
X49984738Y-84312069D02*
X50079976Y-84264450D01*
X50079976Y-84264450D02*
X50318071Y-84264450D01*
X50318071Y-84264450D02*
X50413309Y-84312069D01*
X50413309Y-84312069D02*
X50460928Y-84359688D01*
X50460928Y-84359688D02*
X50508547Y-84454926D01*
X50508547Y-84454926D02*
X50508547Y-84550164D01*
X50508547Y-84550164D02*
X50460928Y-84693021D01*
X50460928Y-84693021D02*
X49889500Y-85264450D01*
X49889500Y-85264450D02*
X50508547Y-85264450D01*
X46365689Y-453046580D02*
X46318070Y-453094200D01*
X46318070Y-453094200D02*
X46175213Y-453141819D01*
X46175213Y-453141819D02*
X46079975Y-453141819D01*
X46079975Y-453141819D02*
X45937118Y-453094200D01*
X45937118Y-453094200D02*
X45841880Y-452998961D01*
X45841880Y-452998961D02*
X45794261Y-452903723D01*
X45794261Y-452903723D02*
X45746642Y-452713247D01*
X45746642Y-452713247D02*
X45746642Y-452570390D01*
X45746642Y-452570390D02*
X45794261Y-452379914D01*
X45794261Y-452379914D02*
X45841880Y-452284676D01*
X45841880Y-452284676D02*
X45937118Y-452189438D01*
X45937118Y-452189438D02*
X46079975Y-452141819D01*
X46079975Y-452141819D02*
X46175213Y-452141819D01*
X46175213Y-452141819D02*
X46318070Y-452189438D01*
X46318070Y-452189438D02*
X46365689Y-452237057D01*
X47270451Y-453141819D02*
X46794261Y-453141819D01*
X46794261Y-453141819D02*
X46794261Y-452141819D01*
X47603785Y-452618009D02*
X47937118Y-452618009D01*
X48079975Y-453141819D02*
X47603785Y-453141819D01*
X47603785Y-453141819D02*
X47603785Y-452141819D01*
X47603785Y-452141819D02*
X48079975Y-452141819D01*
X48508547Y-453141819D02*
X48508547Y-452141819D01*
X48508547Y-452141819D02*
X48746642Y-452141819D01*
X48746642Y-452141819D02*
X48889499Y-452189438D01*
X48889499Y-452189438D02*
X48984737Y-452284676D01*
X48984737Y-452284676D02*
X49032356Y-452379914D01*
X49032356Y-452379914D02*
X49079975Y-452570390D01*
X49079975Y-452570390D02*
X49079975Y-452713247D01*
X49079975Y-452713247D02*
X49032356Y-452903723D01*
X49032356Y-452903723D02*
X48984737Y-452998961D01*
X48984737Y-452998961D02*
X48889499Y-453094200D01*
X48889499Y-453094200D02*
X48746642Y-453141819D01*
X48746642Y-453141819D02*
X48508547Y-453141819D01*
X49460928Y-452237057D02*
X49508547Y-452189438D01*
X49508547Y-452189438D02*
X49603785Y-452141819D01*
X49603785Y-452141819D02*
X49841880Y-452141819D01*
X49841880Y-452141819D02*
X49937118Y-452189438D01*
X49937118Y-452189438D02*
X49984737Y-452237057D01*
X49984737Y-452237057D02*
X50032356Y-452332295D01*
X50032356Y-452332295D02*
X50032356Y-452427533D01*
X50032356Y-452427533D02*
X49984737Y-452570390D01*
X49984737Y-452570390D02*
X49413309Y-453141819D01*
X49413309Y-453141819D02*
X50032356Y-453141819D01*
X50651404Y-452141819D02*
X50746642Y-452141819D01*
X50746642Y-452141819D02*
X50841880Y-452189438D01*
X50841880Y-452189438D02*
X50889499Y-452237057D01*
X50889499Y-452237057D02*
X50937118Y-452332295D01*
X50937118Y-452332295D02*
X50984737Y-452522771D01*
X50984737Y-452522771D02*
X50984737Y-452760866D01*
X50984737Y-452760866D02*
X50937118Y-452951342D01*
X50937118Y-452951342D02*
X50889499Y-453046580D01*
X50889499Y-453046580D02*
X50841880Y-453094200D01*
X50841880Y-453094200D02*
X50746642Y-453141819D01*
X50746642Y-453141819D02*
X50651404Y-453141819D01*
X50651404Y-453141819D02*
X50556166Y-453094200D01*
X50556166Y-453094200D02*
X50508547Y-453046580D01*
X50508547Y-453046580D02*
X50460928Y-452951342D01*
X50460928Y-452951342D02*
X50413309Y-452760866D01*
X50413309Y-452760866D02*
X50413309Y-452522771D01*
X50413309Y-452522771D02*
X50460928Y-452332295D01*
X50460928Y-452332295D02*
X50508547Y-452237057D01*
X50508547Y-452237057D02*
X50556166Y-452189438D01*
X50556166Y-452189438D02*
X50651404Y-452141819D01*
X46365689Y-432608938D02*
X46318070Y-432656558D01*
X46318070Y-432656558D02*
X46175213Y-432704177D01*
X46175213Y-432704177D02*
X46079975Y-432704177D01*
X46079975Y-432704177D02*
X45937118Y-432656558D01*
X45937118Y-432656558D02*
X45841880Y-432561319D01*
X45841880Y-432561319D02*
X45794261Y-432466081D01*
X45794261Y-432466081D02*
X45746642Y-432275605D01*
X45746642Y-432275605D02*
X45746642Y-432132748D01*
X45746642Y-432132748D02*
X45794261Y-431942272D01*
X45794261Y-431942272D02*
X45841880Y-431847034D01*
X45841880Y-431847034D02*
X45937118Y-431751796D01*
X45937118Y-431751796D02*
X46079975Y-431704177D01*
X46079975Y-431704177D02*
X46175213Y-431704177D01*
X46175213Y-431704177D02*
X46318070Y-431751796D01*
X46318070Y-431751796D02*
X46365689Y-431799415D01*
X47270451Y-432704177D02*
X46794261Y-432704177D01*
X46794261Y-432704177D02*
X46794261Y-431704177D01*
X47603785Y-432180367D02*
X47937118Y-432180367D01*
X48079975Y-432704177D02*
X47603785Y-432704177D01*
X47603785Y-432704177D02*
X47603785Y-431704177D01*
X47603785Y-431704177D02*
X48079975Y-431704177D01*
X48508547Y-432704177D02*
X48508547Y-431704177D01*
X48508547Y-431704177D02*
X48746642Y-431704177D01*
X48746642Y-431704177D02*
X48889499Y-431751796D01*
X48889499Y-431751796D02*
X48984737Y-431847034D01*
X48984737Y-431847034D02*
X49032356Y-431942272D01*
X49032356Y-431942272D02*
X49079975Y-432132748D01*
X49079975Y-432132748D02*
X49079975Y-432275605D01*
X49079975Y-432275605D02*
X49032356Y-432466081D01*
X49032356Y-432466081D02*
X48984737Y-432561319D01*
X48984737Y-432561319D02*
X48889499Y-432656558D01*
X48889499Y-432656558D02*
X48746642Y-432704177D01*
X48746642Y-432704177D02*
X48508547Y-432704177D01*
X50032356Y-432704177D02*
X49460928Y-432704177D01*
X49746642Y-432704177D02*
X49746642Y-431704177D01*
X49746642Y-431704177D02*
X49651404Y-431847034D01*
X49651404Y-431847034D02*
X49556166Y-431942272D01*
X49556166Y-431942272D02*
X49460928Y-431989891D01*
X50508547Y-432704177D02*
X50699023Y-432704177D01*
X50699023Y-432704177D02*
X50794261Y-432656558D01*
X50794261Y-432656558D02*
X50841880Y-432608938D01*
X50841880Y-432608938D02*
X50937118Y-432466081D01*
X50937118Y-432466081D02*
X50984737Y-432275605D01*
X50984737Y-432275605D02*
X50984737Y-431894653D01*
X50984737Y-431894653D02*
X50937118Y-431799415D01*
X50937118Y-431799415D02*
X50889499Y-431751796D01*
X50889499Y-431751796D02*
X50794261Y-431704177D01*
X50794261Y-431704177D02*
X50603785Y-431704177D01*
X50603785Y-431704177D02*
X50508547Y-431751796D01*
X50508547Y-431751796D02*
X50460928Y-431799415D01*
X50460928Y-431799415D02*
X50413309Y-431894653D01*
X50413309Y-431894653D02*
X50413309Y-432132748D01*
X50413309Y-432132748D02*
X50460928Y-432227986D01*
X50460928Y-432227986D02*
X50508547Y-432275605D01*
X50508547Y-432275605D02*
X50603785Y-432323224D01*
X50603785Y-432323224D02*
X50794261Y-432323224D01*
X50794261Y-432323224D02*
X50889499Y-432275605D01*
X50889499Y-432275605D02*
X50937118Y-432227986D01*
X50937118Y-432227986D02*
X50984737Y-432132748D01*
X46365689Y-412171307D02*
X46318070Y-412218927D01*
X46318070Y-412218927D02*
X46175213Y-412266546D01*
X46175213Y-412266546D02*
X46079975Y-412266546D01*
X46079975Y-412266546D02*
X45937118Y-412218927D01*
X45937118Y-412218927D02*
X45841880Y-412123688D01*
X45841880Y-412123688D02*
X45794261Y-412028450D01*
X45794261Y-412028450D02*
X45746642Y-411837974D01*
X45746642Y-411837974D02*
X45746642Y-411695117D01*
X45746642Y-411695117D02*
X45794261Y-411504641D01*
X45794261Y-411504641D02*
X45841880Y-411409403D01*
X45841880Y-411409403D02*
X45937118Y-411314165D01*
X45937118Y-411314165D02*
X46079975Y-411266546D01*
X46079975Y-411266546D02*
X46175213Y-411266546D01*
X46175213Y-411266546D02*
X46318070Y-411314165D01*
X46318070Y-411314165D02*
X46365689Y-411361784D01*
X47270451Y-412266546D02*
X46794261Y-412266546D01*
X46794261Y-412266546D02*
X46794261Y-411266546D01*
X47603785Y-411742736D02*
X47937118Y-411742736D01*
X48079975Y-412266546D02*
X47603785Y-412266546D01*
X47603785Y-412266546D02*
X47603785Y-411266546D01*
X47603785Y-411266546D02*
X48079975Y-411266546D01*
X48508547Y-412266546D02*
X48508547Y-411266546D01*
X48508547Y-411266546D02*
X48746642Y-411266546D01*
X48746642Y-411266546D02*
X48889499Y-411314165D01*
X48889499Y-411314165D02*
X48984737Y-411409403D01*
X48984737Y-411409403D02*
X49032356Y-411504641D01*
X49032356Y-411504641D02*
X49079975Y-411695117D01*
X49079975Y-411695117D02*
X49079975Y-411837974D01*
X49079975Y-411837974D02*
X49032356Y-412028450D01*
X49032356Y-412028450D02*
X48984737Y-412123688D01*
X48984737Y-412123688D02*
X48889499Y-412218927D01*
X48889499Y-412218927D02*
X48746642Y-412266546D01*
X48746642Y-412266546D02*
X48508547Y-412266546D01*
X50032356Y-412266546D02*
X49460928Y-412266546D01*
X49746642Y-412266546D02*
X49746642Y-411266546D01*
X49746642Y-411266546D02*
X49651404Y-411409403D01*
X49651404Y-411409403D02*
X49556166Y-411504641D01*
X49556166Y-411504641D02*
X49460928Y-411552260D01*
X50603785Y-411695117D02*
X50508547Y-411647498D01*
X50508547Y-411647498D02*
X50460928Y-411599879D01*
X50460928Y-411599879D02*
X50413309Y-411504641D01*
X50413309Y-411504641D02*
X50413309Y-411457022D01*
X50413309Y-411457022D02*
X50460928Y-411361784D01*
X50460928Y-411361784D02*
X50508547Y-411314165D01*
X50508547Y-411314165D02*
X50603785Y-411266546D01*
X50603785Y-411266546D02*
X50794261Y-411266546D01*
X50794261Y-411266546D02*
X50889499Y-411314165D01*
X50889499Y-411314165D02*
X50937118Y-411361784D01*
X50937118Y-411361784D02*
X50984737Y-411457022D01*
X50984737Y-411457022D02*
X50984737Y-411504641D01*
X50984737Y-411504641D02*
X50937118Y-411599879D01*
X50937118Y-411599879D02*
X50889499Y-411647498D01*
X50889499Y-411647498D02*
X50794261Y-411695117D01*
X50794261Y-411695117D02*
X50603785Y-411695117D01*
X50603785Y-411695117D02*
X50508547Y-411742736D01*
X50508547Y-411742736D02*
X50460928Y-411790355D01*
X50460928Y-411790355D02*
X50413309Y-411885593D01*
X50413309Y-411885593D02*
X50413309Y-412076069D01*
X50413309Y-412076069D02*
X50460928Y-412171307D01*
X50460928Y-412171307D02*
X50508547Y-412218927D01*
X50508547Y-412218927D02*
X50603785Y-412266546D01*
X50603785Y-412266546D02*
X50794261Y-412266546D01*
X50794261Y-412266546D02*
X50889499Y-412218927D01*
X50889499Y-412218927D02*
X50937118Y-412171307D01*
X50937118Y-412171307D02*
X50984737Y-412076069D01*
X50984737Y-412076069D02*
X50984737Y-411885593D01*
X50984737Y-411885593D02*
X50937118Y-411790355D01*
X50937118Y-411790355D02*
X50889499Y-411742736D01*
X50889499Y-411742736D02*
X50794261Y-411695117D01*
X46365689Y-391733676D02*
X46318070Y-391781296D01*
X46318070Y-391781296D02*
X46175213Y-391828915D01*
X46175213Y-391828915D02*
X46079975Y-391828915D01*
X46079975Y-391828915D02*
X45937118Y-391781296D01*
X45937118Y-391781296D02*
X45841880Y-391686057D01*
X45841880Y-391686057D02*
X45794261Y-391590819D01*
X45794261Y-391590819D02*
X45746642Y-391400343D01*
X45746642Y-391400343D02*
X45746642Y-391257486D01*
X45746642Y-391257486D02*
X45794261Y-391067010D01*
X45794261Y-391067010D02*
X45841880Y-390971772D01*
X45841880Y-390971772D02*
X45937118Y-390876534D01*
X45937118Y-390876534D02*
X46079975Y-390828915D01*
X46079975Y-390828915D02*
X46175213Y-390828915D01*
X46175213Y-390828915D02*
X46318070Y-390876534D01*
X46318070Y-390876534D02*
X46365689Y-390924153D01*
X47270451Y-391828915D02*
X46794261Y-391828915D01*
X46794261Y-391828915D02*
X46794261Y-390828915D01*
X47603785Y-391305105D02*
X47937118Y-391305105D01*
X48079975Y-391828915D02*
X47603785Y-391828915D01*
X47603785Y-391828915D02*
X47603785Y-390828915D01*
X47603785Y-390828915D02*
X48079975Y-390828915D01*
X48508547Y-391828915D02*
X48508547Y-390828915D01*
X48508547Y-390828915D02*
X48746642Y-390828915D01*
X48746642Y-390828915D02*
X48889499Y-390876534D01*
X48889499Y-390876534D02*
X48984737Y-390971772D01*
X48984737Y-390971772D02*
X49032356Y-391067010D01*
X49032356Y-391067010D02*
X49079975Y-391257486D01*
X49079975Y-391257486D02*
X49079975Y-391400343D01*
X49079975Y-391400343D02*
X49032356Y-391590819D01*
X49032356Y-391590819D02*
X48984737Y-391686057D01*
X48984737Y-391686057D02*
X48889499Y-391781296D01*
X48889499Y-391781296D02*
X48746642Y-391828915D01*
X48746642Y-391828915D02*
X48508547Y-391828915D01*
X50032356Y-391828915D02*
X49460928Y-391828915D01*
X49746642Y-391828915D02*
X49746642Y-390828915D01*
X49746642Y-390828915D02*
X49651404Y-390971772D01*
X49651404Y-390971772D02*
X49556166Y-391067010D01*
X49556166Y-391067010D02*
X49460928Y-391114629D01*
X50365690Y-390828915D02*
X51032356Y-390828915D01*
X51032356Y-390828915D02*
X50603785Y-391828915D01*
X46365689Y-371296045D02*
X46318070Y-371343665D01*
X46318070Y-371343665D02*
X46175213Y-371391284D01*
X46175213Y-371391284D02*
X46079975Y-371391284D01*
X46079975Y-371391284D02*
X45937118Y-371343665D01*
X45937118Y-371343665D02*
X45841880Y-371248426D01*
X45841880Y-371248426D02*
X45794261Y-371153188D01*
X45794261Y-371153188D02*
X45746642Y-370962712D01*
X45746642Y-370962712D02*
X45746642Y-370819855D01*
X45746642Y-370819855D02*
X45794261Y-370629379D01*
X45794261Y-370629379D02*
X45841880Y-370534141D01*
X45841880Y-370534141D02*
X45937118Y-370438903D01*
X45937118Y-370438903D02*
X46079975Y-370391284D01*
X46079975Y-370391284D02*
X46175213Y-370391284D01*
X46175213Y-370391284D02*
X46318070Y-370438903D01*
X46318070Y-370438903D02*
X46365689Y-370486522D01*
X47270451Y-371391284D02*
X46794261Y-371391284D01*
X46794261Y-371391284D02*
X46794261Y-370391284D01*
X47603785Y-370867474D02*
X47937118Y-370867474D01*
X48079975Y-371391284D02*
X47603785Y-371391284D01*
X47603785Y-371391284D02*
X47603785Y-370391284D01*
X47603785Y-370391284D02*
X48079975Y-370391284D01*
X48508547Y-371391284D02*
X48508547Y-370391284D01*
X48508547Y-370391284D02*
X48746642Y-370391284D01*
X48746642Y-370391284D02*
X48889499Y-370438903D01*
X48889499Y-370438903D02*
X48984737Y-370534141D01*
X48984737Y-370534141D02*
X49032356Y-370629379D01*
X49032356Y-370629379D02*
X49079975Y-370819855D01*
X49079975Y-370819855D02*
X49079975Y-370962712D01*
X49079975Y-370962712D02*
X49032356Y-371153188D01*
X49032356Y-371153188D02*
X48984737Y-371248426D01*
X48984737Y-371248426D02*
X48889499Y-371343665D01*
X48889499Y-371343665D02*
X48746642Y-371391284D01*
X48746642Y-371391284D02*
X48508547Y-371391284D01*
X50032356Y-371391284D02*
X49460928Y-371391284D01*
X49746642Y-371391284D02*
X49746642Y-370391284D01*
X49746642Y-370391284D02*
X49651404Y-370534141D01*
X49651404Y-370534141D02*
X49556166Y-370629379D01*
X49556166Y-370629379D02*
X49460928Y-370676998D01*
X50889499Y-370391284D02*
X50699023Y-370391284D01*
X50699023Y-370391284D02*
X50603785Y-370438903D01*
X50603785Y-370438903D02*
X50556166Y-370486522D01*
X50556166Y-370486522D02*
X50460928Y-370629379D01*
X50460928Y-370629379D02*
X50413309Y-370819855D01*
X50413309Y-370819855D02*
X50413309Y-371200807D01*
X50413309Y-371200807D02*
X50460928Y-371296045D01*
X50460928Y-371296045D02*
X50508547Y-371343665D01*
X50508547Y-371343665D02*
X50603785Y-371391284D01*
X50603785Y-371391284D02*
X50794261Y-371391284D01*
X50794261Y-371391284D02*
X50889499Y-371343665D01*
X50889499Y-371343665D02*
X50937118Y-371296045D01*
X50937118Y-371296045D02*
X50984737Y-371200807D01*
X50984737Y-371200807D02*
X50984737Y-370962712D01*
X50984737Y-370962712D02*
X50937118Y-370867474D01*
X50937118Y-370867474D02*
X50889499Y-370819855D01*
X50889499Y-370819855D02*
X50794261Y-370772236D01*
X50794261Y-370772236D02*
X50603785Y-370772236D01*
X50603785Y-370772236D02*
X50508547Y-370819855D01*
X50508547Y-370819855D02*
X50460928Y-370867474D01*
X50460928Y-370867474D02*
X50413309Y-370962712D01*
X46365689Y-350858414D02*
X46318070Y-350906034D01*
X46318070Y-350906034D02*
X46175213Y-350953653D01*
X46175213Y-350953653D02*
X46079975Y-350953653D01*
X46079975Y-350953653D02*
X45937118Y-350906034D01*
X45937118Y-350906034D02*
X45841880Y-350810795D01*
X45841880Y-350810795D02*
X45794261Y-350715557D01*
X45794261Y-350715557D02*
X45746642Y-350525081D01*
X45746642Y-350525081D02*
X45746642Y-350382224D01*
X45746642Y-350382224D02*
X45794261Y-350191748D01*
X45794261Y-350191748D02*
X45841880Y-350096510D01*
X45841880Y-350096510D02*
X45937118Y-350001272D01*
X45937118Y-350001272D02*
X46079975Y-349953653D01*
X46079975Y-349953653D02*
X46175213Y-349953653D01*
X46175213Y-349953653D02*
X46318070Y-350001272D01*
X46318070Y-350001272D02*
X46365689Y-350048891D01*
X47270451Y-350953653D02*
X46794261Y-350953653D01*
X46794261Y-350953653D02*
X46794261Y-349953653D01*
X47603785Y-350429843D02*
X47937118Y-350429843D01*
X48079975Y-350953653D02*
X47603785Y-350953653D01*
X47603785Y-350953653D02*
X47603785Y-349953653D01*
X47603785Y-349953653D02*
X48079975Y-349953653D01*
X48508547Y-350953653D02*
X48508547Y-349953653D01*
X48508547Y-349953653D02*
X48746642Y-349953653D01*
X48746642Y-349953653D02*
X48889499Y-350001272D01*
X48889499Y-350001272D02*
X48984737Y-350096510D01*
X48984737Y-350096510D02*
X49032356Y-350191748D01*
X49032356Y-350191748D02*
X49079975Y-350382224D01*
X49079975Y-350382224D02*
X49079975Y-350525081D01*
X49079975Y-350525081D02*
X49032356Y-350715557D01*
X49032356Y-350715557D02*
X48984737Y-350810795D01*
X48984737Y-350810795D02*
X48889499Y-350906034D01*
X48889499Y-350906034D02*
X48746642Y-350953653D01*
X48746642Y-350953653D02*
X48508547Y-350953653D01*
X50032356Y-350953653D02*
X49460928Y-350953653D01*
X49746642Y-350953653D02*
X49746642Y-349953653D01*
X49746642Y-349953653D02*
X49651404Y-350096510D01*
X49651404Y-350096510D02*
X49556166Y-350191748D01*
X49556166Y-350191748D02*
X49460928Y-350239367D01*
X50937118Y-349953653D02*
X50460928Y-349953653D01*
X50460928Y-349953653D02*
X50413309Y-350429843D01*
X50413309Y-350429843D02*
X50460928Y-350382224D01*
X50460928Y-350382224D02*
X50556166Y-350334605D01*
X50556166Y-350334605D02*
X50794261Y-350334605D01*
X50794261Y-350334605D02*
X50889499Y-350382224D01*
X50889499Y-350382224D02*
X50937118Y-350429843D01*
X50937118Y-350429843D02*
X50984737Y-350525081D01*
X50984737Y-350525081D02*
X50984737Y-350763176D01*
X50984737Y-350763176D02*
X50937118Y-350858414D01*
X50937118Y-350858414D02*
X50889499Y-350906034D01*
X50889499Y-350906034D02*
X50794261Y-350953653D01*
X50794261Y-350953653D02*
X50556166Y-350953653D01*
X50556166Y-350953653D02*
X50460928Y-350906034D01*
X50460928Y-350906034D02*
X50413309Y-350858414D01*
X46365689Y-330420783D02*
X46318070Y-330468403D01*
X46318070Y-330468403D02*
X46175213Y-330516022D01*
X46175213Y-330516022D02*
X46079975Y-330516022D01*
X46079975Y-330516022D02*
X45937118Y-330468403D01*
X45937118Y-330468403D02*
X45841880Y-330373164D01*
X45841880Y-330373164D02*
X45794261Y-330277926D01*
X45794261Y-330277926D02*
X45746642Y-330087450D01*
X45746642Y-330087450D02*
X45746642Y-329944593D01*
X45746642Y-329944593D02*
X45794261Y-329754117D01*
X45794261Y-329754117D02*
X45841880Y-329658879D01*
X45841880Y-329658879D02*
X45937118Y-329563641D01*
X45937118Y-329563641D02*
X46079975Y-329516022D01*
X46079975Y-329516022D02*
X46175213Y-329516022D01*
X46175213Y-329516022D02*
X46318070Y-329563641D01*
X46318070Y-329563641D02*
X46365689Y-329611260D01*
X47270451Y-330516022D02*
X46794261Y-330516022D01*
X46794261Y-330516022D02*
X46794261Y-329516022D01*
X47603785Y-329992212D02*
X47937118Y-329992212D01*
X48079975Y-330516022D02*
X47603785Y-330516022D01*
X47603785Y-330516022D02*
X47603785Y-329516022D01*
X47603785Y-329516022D02*
X48079975Y-329516022D01*
X48508547Y-330516022D02*
X48508547Y-329516022D01*
X48508547Y-329516022D02*
X48746642Y-329516022D01*
X48746642Y-329516022D02*
X48889499Y-329563641D01*
X48889499Y-329563641D02*
X48984737Y-329658879D01*
X48984737Y-329658879D02*
X49032356Y-329754117D01*
X49032356Y-329754117D02*
X49079975Y-329944593D01*
X49079975Y-329944593D02*
X49079975Y-330087450D01*
X49079975Y-330087450D02*
X49032356Y-330277926D01*
X49032356Y-330277926D02*
X48984737Y-330373164D01*
X48984737Y-330373164D02*
X48889499Y-330468403D01*
X48889499Y-330468403D02*
X48746642Y-330516022D01*
X48746642Y-330516022D02*
X48508547Y-330516022D01*
X50032356Y-330516022D02*
X49460928Y-330516022D01*
X49746642Y-330516022D02*
X49746642Y-329516022D01*
X49746642Y-329516022D02*
X49651404Y-329658879D01*
X49651404Y-329658879D02*
X49556166Y-329754117D01*
X49556166Y-329754117D02*
X49460928Y-329801736D01*
X50889499Y-329849355D02*
X50889499Y-330516022D01*
X50651404Y-329468403D02*
X50413309Y-330182688D01*
X50413309Y-330182688D02*
X51032356Y-330182688D01*
X46365689Y-309983152D02*
X46318070Y-310030772D01*
X46318070Y-310030772D02*
X46175213Y-310078391D01*
X46175213Y-310078391D02*
X46079975Y-310078391D01*
X46079975Y-310078391D02*
X45937118Y-310030772D01*
X45937118Y-310030772D02*
X45841880Y-309935533D01*
X45841880Y-309935533D02*
X45794261Y-309840295D01*
X45794261Y-309840295D02*
X45746642Y-309649819D01*
X45746642Y-309649819D02*
X45746642Y-309506962D01*
X45746642Y-309506962D02*
X45794261Y-309316486D01*
X45794261Y-309316486D02*
X45841880Y-309221248D01*
X45841880Y-309221248D02*
X45937118Y-309126010D01*
X45937118Y-309126010D02*
X46079975Y-309078391D01*
X46079975Y-309078391D02*
X46175213Y-309078391D01*
X46175213Y-309078391D02*
X46318070Y-309126010D01*
X46318070Y-309126010D02*
X46365689Y-309173629D01*
X47270451Y-310078391D02*
X46794261Y-310078391D01*
X46794261Y-310078391D02*
X46794261Y-309078391D01*
X47603785Y-309554581D02*
X47937118Y-309554581D01*
X48079975Y-310078391D02*
X47603785Y-310078391D01*
X47603785Y-310078391D02*
X47603785Y-309078391D01*
X47603785Y-309078391D02*
X48079975Y-309078391D01*
X48508547Y-310078391D02*
X48508547Y-309078391D01*
X48508547Y-309078391D02*
X48746642Y-309078391D01*
X48746642Y-309078391D02*
X48889499Y-309126010D01*
X48889499Y-309126010D02*
X48984737Y-309221248D01*
X48984737Y-309221248D02*
X49032356Y-309316486D01*
X49032356Y-309316486D02*
X49079975Y-309506962D01*
X49079975Y-309506962D02*
X49079975Y-309649819D01*
X49079975Y-309649819D02*
X49032356Y-309840295D01*
X49032356Y-309840295D02*
X48984737Y-309935533D01*
X48984737Y-309935533D02*
X48889499Y-310030772D01*
X48889499Y-310030772D02*
X48746642Y-310078391D01*
X48746642Y-310078391D02*
X48508547Y-310078391D01*
X50032356Y-310078391D02*
X49460928Y-310078391D01*
X49746642Y-310078391D02*
X49746642Y-309078391D01*
X49746642Y-309078391D02*
X49651404Y-309221248D01*
X49651404Y-309221248D02*
X49556166Y-309316486D01*
X49556166Y-309316486D02*
X49460928Y-309364105D01*
X50365690Y-309078391D02*
X50984737Y-309078391D01*
X50984737Y-309078391D02*
X50651404Y-309459343D01*
X50651404Y-309459343D02*
X50794261Y-309459343D01*
X50794261Y-309459343D02*
X50889499Y-309506962D01*
X50889499Y-309506962D02*
X50937118Y-309554581D01*
X50937118Y-309554581D02*
X50984737Y-309649819D01*
X50984737Y-309649819D02*
X50984737Y-309887914D01*
X50984737Y-309887914D02*
X50937118Y-309983152D01*
X50937118Y-309983152D02*
X50889499Y-310030772D01*
X50889499Y-310030772D02*
X50794261Y-310078391D01*
X50794261Y-310078391D02*
X50508547Y-310078391D01*
X50508547Y-310078391D02*
X50413309Y-310030772D01*
X50413309Y-310030772D02*
X50365690Y-309983152D01*
X46365689Y-289545521D02*
X46318070Y-289593141D01*
X46318070Y-289593141D02*
X46175213Y-289640760D01*
X46175213Y-289640760D02*
X46079975Y-289640760D01*
X46079975Y-289640760D02*
X45937118Y-289593141D01*
X45937118Y-289593141D02*
X45841880Y-289497902D01*
X45841880Y-289497902D02*
X45794261Y-289402664D01*
X45794261Y-289402664D02*
X45746642Y-289212188D01*
X45746642Y-289212188D02*
X45746642Y-289069331D01*
X45746642Y-289069331D02*
X45794261Y-288878855D01*
X45794261Y-288878855D02*
X45841880Y-288783617D01*
X45841880Y-288783617D02*
X45937118Y-288688379D01*
X45937118Y-288688379D02*
X46079975Y-288640760D01*
X46079975Y-288640760D02*
X46175213Y-288640760D01*
X46175213Y-288640760D02*
X46318070Y-288688379D01*
X46318070Y-288688379D02*
X46365689Y-288735998D01*
X47270451Y-289640760D02*
X46794261Y-289640760D01*
X46794261Y-289640760D02*
X46794261Y-288640760D01*
X47603785Y-289116950D02*
X47937118Y-289116950D01*
X48079975Y-289640760D02*
X47603785Y-289640760D01*
X47603785Y-289640760D02*
X47603785Y-288640760D01*
X47603785Y-288640760D02*
X48079975Y-288640760D01*
X48508547Y-289640760D02*
X48508547Y-288640760D01*
X48508547Y-288640760D02*
X48746642Y-288640760D01*
X48746642Y-288640760D02*
X48889499Y-288688379D01*
X48889499Y-288688379D02*
X48984737Y-288783617D01*
X48984737Y-288783617D02*
X49032356Y-288878855D01*
X49032356Y-288878855D02*
X49079975Y-289069331D01*
X49079975Y-289069331D02*
X49079975Y-289212188D01*
X49079975Y-289212188D02*
X49032356Y-289402664D01*
X49032356Y-289402664D02*
X48984737Y-289497902D01*
X48984737Y-289497902D02*
X48889499Y-289593141D01*
X48889499Y-289593141D02*
X48746642Y-289640760D01*
X48746642Y-289640760D02*
X48508547Y-289640760D01*
X50032356Y-289640760D02*
X49460928Y-289640760D01*
X49746642Y-289640760D02*
X49746642Y-288640760D01*
X49746642Y-288640760D02*
X49651404Y-288783617D01*
X49651404Y-288783617D02*
X49556166Y-288878855D01*
X49556166Y-288878855D02*
X49460928Y-288926474D01*
X50413309Y-288735998D02*
X50460928Y-288688379D01*
X50460928Y-288688379D02*
X50556166Y-288640760D01*
X50556166Y-288640760D02*
X50794261Y-288640760D01*
X50794261Y-288640760D02*
X50889499Y-288688379D01*
X50889499Y-288688379D02*
X50937118Y-288735998D01*
X50937118Y-288735998D02*
X50984737Y-288831236D01*
X50984737Y-288831236D02*
X50984737Y-288926474D01*
X50984737Y-288926474D02*
X50937118Y-289069331D01*
X50937118Y-289069331D02*
X50365690Y-289640760D01*
X50365690Y-289640760D02*
X50984737Y-289640760D01*
X46365689Y-269107890D02*
X46318070Y-269155510D01*
X46318070Y-269155510D02*
X46175213Y-269203129D01*
X46175213Y-269203129D02*
X46079975Y-269203129D01*
X46079975Y-269203129D02*
X45937118Y-269155510D01*
X45937118Y-269155510D02*
X45841880Y-269060271D01*
X45841880Y-269060271D02*
X45794261Y-268965033D01*
X45794261Y-268965033D02*
X45746642Y-268774557D01*
X45746642Y-268774557D02*
X45746642Y-268631700D01*
X45746642Y-268631700D02*
X45794261Y-268441224D01*
X45794261Y-268441224D02*
X45841880Y-268345986D01*
X45841880Y-268345986D02*
X45937118Y-268250748D01*
X45937118Y-268250748D02*
X46079975Y-268203129D01*
X46079975Y-268203129D02*
X46175213Y-268203129D01*
X46175213Y-268203129D02*
X46318070Y-268250748D01*
X46318070Y-268250748D02*
X46365689Y-268298367D01*
X47270451Y-269203129D02*
X46794261Y-269203129D01*
X46794261Y-269203129D02*
X46794261Y-268203129D01*
X47603785Y-268679319D02*
X47937118Y-268679319D01*
X48079975Y-269203129D02*
X47603785Y-269203129D01*
X47603785Y-269203129D02*
X47603785Y-268203129D01*
X47603785Y-268203129D02*
X48079975Y-268203129D01*
X48508547Y-269203129D02*
X48508547Y-268203129D01*
X48508547Y-268203129D02*
X48746642Y-268203129D01*
X48746642Y-268203129D02*
X48889499Y-268250748D01*
X48889499Y-268250748D02*
X48984737Y-268345986D01*
X48984737Y-268345986D02*
X49032356Y-268441224D01*
X49032356Y-268441224D02*
X49079975Y-268631700D01*
X49079975Y-268631700D02*
X49079975Y-268774557D01*
X49079975Y-268774557D02*
X49032356Y-268965033D01*
X49032356Y-268965033D02*
X48984737Y-269060271D01*
X48984737Y-269060271D02*
X48889499Y-269155510D01*
X48889499Y-269155510D02*
X48746642Y-269203129D01*
X48746642Y-269203129D02*
X48508547Y-269203129D01*
X50032356Y-269203129D02*
X49460928Y-269203129D01*
X49746642Y-269203129D02*
X49746642Y-268203129D01*
X49746642Y-268203129D02*
X49651404Y-268345986D01*
X49651404Y-268345986D02*
X49556166Y-268441224D01*
X49556166Y-268441224D02*
X49460928Y-268488843D01*
X50984737Y-269203129D02*
X50413309Y-269203129D01*
X50699023Y-269203129D02*
X50699023Y-268203129D01*
X50699023Y-268203129D02*
X50603785Y-268345986D01*
X50603785Y-268345986D02*
X50508547Y-268441224D01*
X50508547Y-268441224D02*
X50413309Y-268488843D01*
X46365689Y-248670259D02*
X46318070Y-248717879D01*
X46318070Y-248717879D02*
X46175213Y-248765498D01*
X46175213Y-248765498D02*
X46079975Y-248765498D01*
X46079975Y-248765498D02*
X45937118Y-248717879D01*
X45937118Y-248717879D02*
X45841880Y-248622640D01*
X45841880Y-248622640D02*
X45794261Y-248527402D01*
X45794261Y-248527402D02*
X45746642Y-248336926D01*
X45746642Y-248336926D02*
X45746642Y-248194069D01*
X45746642Y-248194069D02*
X45794261Y-248003593D01*
X45794261Y-248003593D02*
X45841880Y-247908355D01*
X45841880Y-247908355D02*
X45937118Y-247813117D01*
X45937118Y-247813117D02*
X46079975Y-247765498D01*
X46079975Y-247765498D02*
X46175213Y-247765498D01*
X46175213Y-247765498D02*
X46318070Y-247813117D01*
X46318070Y-247813117D02*
X46365689Y-247860736D01*
X47270451Y-248765498D02*
X46794261Y-248765498D01*
X46794261Y-248765498D02*
X46794261Y-247765498D01*
X47603785Y-248241688D02*
X47937118Y-248241688D01*
X48079975Y-248765498D02*
X47603785Y-248765498D01*
X47603785Y-248765498D02*
X47603785Y-247765498D01*
X47603785Y-247765498D02*
X48079975Y-247765498D01*
X48508547Y-248765498D02*
X48508547Y-247765498D01*
X48508547Y-247765498D02*
X48746642Y-247765498D01*
X48746642Y-247765498D02*
X48889499Y-247813117D01*
X48889499Y-247813117D02*
X48984737Y-247908355D01*
X48984737Y-247908355D02*
X49032356Y-248003593D01*
X49032356Y-248003593D02*
X49079975Y-248194069D01*
X49079975Y-248194069D02*
X49079975Y-248336926D01*
X49079975Y-248336926D02*
X49032356Y-248527402D01*
X49032356Y-248527402D02*
X48984737Y-248622640D01*
X48984737Y-248622640D02*
X48889499Y-248717879D01*
X48889499Y-248717879D02*
X48746642Y-248765498D01*
X48746642Y-248765498D02*
X48508547Y-248765498D01*
X50032356Y-248765498D02*
X49460928Y-248765498D01*
X49746642Y-248765498D02*
X49746642Y-247765498D01*
X49746642Y-247765498D02*
X49651404Y-247908355D01*
X49651404Y-247908355D02*
X49556166Y-248003593D01*
X49556166Y-248003593D02*
X49460928Y-248051212D01*
X50651404Y-247765498D02*
X50746642Y-247765498D01*
X50746642Y-247765498D02*
X50841880Y-247813117D01*
X50841880Y-247813117D02*
X50889499Y-247860736D01*
X50889499Y-247860736D02*
X50937118Y-247955974D01*
X50937118Y-247955974D02*
X50984737Y-248146450D01*
X50984737Y-248146450D02*
X50984737Y-248384545D01*
X50984737Y-248384545D02*
X50937118Y-248575021D01*
X50937118Y-248575021D02*
X50889499Y-248670259D01*
X50889499Y-248670259D02*
X50841880Y-248717879D01*
X50841880Y-248717879D02*
X50746642Y-248765498D01*
X50746642Y-248765498D02*
X50651404Y-248765498D01*
X50651404Y-248765498D02*
X50556166Y-248717879D01*
X50556166Y-248717879D02*
X50508547Y-248670259D01*
X50508547Y-248670259D02*
X50460928Y-248575021D01*
X50460928Y-248575021D02*
X50413309Y-248384545D01*
X50413309Y-248384545D02*
X50413309Y-248146450D01*
X50413309Y-248146450D02*
X50460928Y-247955974D01*
X50460928Y-247955974D02*
X50508547Y-247860736D01*
X50508547Y-247860736D02*
X50556166Y-247813117D01*
X50556166Y-247813117D02*
X50651404Y-247765498D01*
X46841880Y-228232628D02*
X46794261Y-228280248D01*
X46794261Y-228280248D02*
X46651404Y-228327867D01*
X46651404Y-228327867D02*
X46556166Y-228327867D01*
X46556166Y-228327867D02*
X46413309Y-228280248D01*
X46413309Y-228280248D02*
X46318071Y-228185009D01*
X46318071Y-228185009D02*
X46270452Y-228089771D01*
X46270452Y-228089771D02*
X46222833Y-227899295D01*
X46222833Y-227899295D02*
X46222833Y-227756438D01*
X46222833Y-227756438D02*
X46270452Y-227565962D01*
X46270452Y-227565962D02*
X46318071Y-227470724D01*
X46318071Y-227470724D02*
X46413309Y-227375486D01*
X46413309Y-227375486D02*
X46556166Y-227327867D01*
X46556166Y-227327867D02*
X46651404Y-227327867D01*
X46651404Y-227327867D02*
X46794261Y-227375486D01*
X46794261Y-227375486D02*
X46841880Y-227423105D01*
X47746642Y-228327867D02*
X47270452Y-228327867D01*
X47270452Y-228327867D02*
X47270452Y-227327867D01*
X48079976Y-227804057D02*
X48413309Y-227804057D01*
X48556166Y-228327867D02*
X48079976Y-228327867D01*
X48079976Y-228327867D02*
X48079976Y-227327867D01*
X48079976Y-227327867D02*
X48556166Y-227327867D01*
X48984738Y-228327867D02*
X48984738Y-227327867D01*
X48984738Y-227327867D02*
X49222833Y-227327867D01*
X49222833Y-227327867D02*
X49365690Y-227375486D01*
X49365690Y-227375486D02*
X49460928Y-227470724D01*
X49460928Y-227470724D02*
X49508547Y-227565962D01*
X49508547Y-227565962D02*
X49556166Y-227756438D01*
X49556166Y-227756438D02*
X49556166Y-227899295D01*
X49556166Y-227899295D02*
X49508547Y-228089771D01*
X49508547Y-228089771D02*
X49460928Y-228185009D01*
X49460928Y-228185009D02*
X49365690Y-228280248D01*
X49365690Y-228280248D02*
X49222833Y-228327867D01*
X49222833Y-228327867D02*
X48984738Y-228327867D01*
X50032357Y-228327867D02*
X50222833Y-228327867D01*
X50222833Y-228327867D02*
X50318071Y-228280248D01*
X50318071Y-228280248D02*
X50365690Y-228232628D01*
X50365690Y-228232628D02*
X50460928Y-228089771D01*
X50460928Y-228089771D02*
X50508547Y-227899295D01*
X50508547Y-227899295D02*
X50508547Y-227518343D01*
X50508547Y-227518343D02*
X50460928Y-227423105D01*
X50460928Y-227423105D02*
X50413309Y-227375486D01*
X50413309Y-227375486D02*
X50318071Y-227327867D01*
X50318071Y-227327867D02*
X50127595Y-227327867D01*
X50127595Y-227327867D02*
X50032357Y-227375486D01*
X50032357Y-227375486D02*
X49984738Y-227423105D01*
X49984738Y-227423105D02*
X49937119Y-227518343D01*
X49937119Y-227518343D02*
X49937119Y-227756438D01*
X49937119Y-227756438D02*
X49984738Y-227851676D01*
X49984738Y-227851676D02*
X50032357Y-227899295D01*
X50032357Y-227899295D02*
X50127595Y-227946914D01*
X50127595Y-227946914D02*
X50318071Y-227946914D01*
X50318071Y-227946914D02*
X50413309Y-227899295D01*
X50413309Y-227899295D02*
X50460928Y-227851676D01*
X50460928Y-227851676D02*
X50508547Y-227756438D01*
X46841880Y-207794997D02*
X46794261Y-207842617D01*
X46794261Y-207842617D02*
X46651404Y-207890236D01*
X46651404Y-207890236D02*
X46556166Y-207890236D01*
X46556166Y-207890236D02*
X46413309Y-207842617D01*
X46413309Y-207842617D02*
X46318071Y-207747378D01*
X46318071Y-207747378D02*
X46270452Y-207652140D01*
X46270452Y-207652140D02*
X46222833Y-207461664D01*
X46222833Y-207461664D02*
X46222833Y-207318807D01*
X46222833Y-207318807D02*
X46270452Y-207128331D01*
X46270452Y-207128331D02*
X46318071Y-207033093D01*
X46318071Y-207033093D02*
X46413309Y-206937855D01*
X46413309Y-206937855D02*
X46556166Y-206890236D01*
X46556166Y-206890236D02*
X46651404Y-206890236D01*
X46651404Y-206890236D02*
X46794261Y-206937855D01*
X46794261Y-206937855D02*
X46841880Y-206985474D01*
X47746642Y-207890236D02*
X47270452Y-207890236D01*
X47270452Y-207890236D02*
X47270452Y-206890236D01*
X48079976Y-207366426D02*
X48413309Y-207366426D01*
X48556166Y-207890236D02*
X48079976Y-207890236D01*
X48079976Y-207890236D02*
X48079976Y-206890236D01*
X48079976Y-206890236D02*
X48556166Y-206890236D01*
X48984738Y-207890236D02*
X48984738Y-206890236D01*
X48984738Y-206890236D02*
X49222833Y-206890236D01*
X49222833Y-206890236D02*
X49365690Y-206937855D01*
X49365690Y-206937855D02*
X49460928Y-207033093D01*
X49460928Y-207033093D02*
X49508547Y-207128331D01*
X49508547Y-207128331D02*
X49556166Y-207318807D01*
X49556166Y-207318807D02*
X49556166Y-207461664D01*
X49556166Y-207461664D02*
X49508547Y-207652140D01*
X49508547Y-207652140D02*
X49460928Y-207747378D01*
X49460928Y-207747378D02*
X49365690Y-207842617D01*
X49365690Y-207842617D02*
X49222833Y-207890236D01*
X49222833Y-207890236D02*
X48984738Y-207890236D01*
X50127595Y-207318807D02*
X50032357Y-207271188D01*
X50032357Y-207271188D02*
X49984738Y-207223569D01*
X49984738Y-207223569D02*
X49937119Y-207128331D01*
X49937119Y-207128331D02*
X49937119Y-207080712D01*
X49937119Y-207080712D02*
X49984738Y-206985474D01*
X49984738Y-206985474D02*
X50032357Y-206937855D01*
X50032357Y-206937855D02*
X50127595Y-206890236D01*
X50127595Y-206890236D02*
X50318071Y-206890236D01*
X50318071Y-206890236D02*
X50413309Y-206937855D01*
X50413309Y-206937855D02*
X50460928Y-206985474D01*
X50460928Y-206985474D02*
X50508547Y-207080712D01*
X50508547Y-207080712D02*
X50508547Y-207128331D01*
X50508547Y-207128331D02*
X50460928Y-207223569D01*
X50460928Y-207223569D02*
X50413309Y-207271188D01*
X50413309Y-207271188D02*
X50318071Y-207318807D01*
X50318071Y-207318807D02*
X50127595Y-207318807D01*
X50127595Y-207318807D02*
X50032357Y-207366426D01*
X50032357Y-207366426D02*
X49984738Y-207414045D01*
X49984738Y-207414045D02*
X49937119Y-207509283D01*
X49937119Y-207509283D02*
X49937119Y-207699759D01*
X49937119Y-207699759D02*
X49984738Y-207794997D01*
X49984738Y-207794997D02*
X50032357Y-207842617D01*
X50032357Y-207842617D02*
X50127595Y-207890236D01*
X50127595Y-207890236D02*
X50318071Y-207890236D01*
X50318071Y-207890236D02*
X50413309Y-207842617D01*
X50413309Y-207842617D02*
X50460928Y-207794997D01*
X50460928Y-207794997D02*
X50508547Y-207699759D01*
X50508547Y-207699759D02*
X50508547Y-207509283D01*
X50508547Y-207509283D02*
X50460928Y-207414045D01*
X50460928Y-207414045D02*
X50413309Y-207366426D01*
X50413309Y-207366426D02*
X50318071Y-207318807D01*
X46841880Y-187357366D02*
X46794261Y-187404986D01*
X46794261Y-187404986D02*
X46651404Y-187452605D01*
X46651404Y-187452605D02*
X46556166Y-187452605D01*
X46556166Y-187452605D02*
X46413309Y-187404986D01*
X46413309Y-187404986D02*
X46318071Y-187309747D01*
X46318071Y-187309747D02*
X46270452Y-187214509D01*
X46270452Y-187214509D02*
X46222833Y-187024033D01*
X46222833Y-187024033D02*
X46222833Y-186881176D01*
X46222833Y-186881176D02*
X46270452Y-186690700D01*
X46270452Y-186690700D02*
X46318071Y-186595462D01*
X46318071Y-186595462D02*
X46413309Y-186500224D01*
X46413309Y-186500224D02*
X46556166Y-186452605D01*
X46556166Y-186452605D02*
X46651404Y-186452605D01*
X46651404Y-186452605D02*
X46794261Y-186500224D01*
X46794261Y-186500224D02*
X46841880Y-186547843D01*
X47746642Y-187452605D02*
X47270452Y-187452605D01*
X47270452Y-187452605D02*
X47270452Y-186452605D01*
X48079976Y-186928795D02*
X48413309Y-186928795D01*
X48556166Y-187452605D02*
X48079976Y-187452605D01*
X48079976Y-187452605D02*
X48079976Y-186452605D01*
X48079976Y-186452605D02*
X48556166Y-186452605D01*
X48984738Y-187452605D02*
X48984738Y-186452605D01*
X48984738Y-186452605D02*
X49222833Y-186452605D01*
X49222833Y-186452605D02*
X49365690Y-186500224D01*
X49365690Y-186500224D02*
X49460928Y-186595462D01*
X49460928Y-186595462D02*
X49508547Y-186690700D01*
X49508547Y-186690700D02*
X49556166Y-186881176D01*
X49556166Y-186881176D02*
X49556166Y-187024033D01*
X49556166Y-187024033D02*
X49508547Y-187214509D01*
X49508547Y-187214509D02*
X49460928Y-187309747D01*
X49460928Y-187309747D02*
X49365690Y-187404986D01*
X49365690Y-187404986D02*
X49222833Y-187452605D01*
X49222833Y-187452605D02*
X48984738Y-187452605D01*
X49889500Y-186452605D02*
X50556166Y-186452605D01*
X50556166Y-186452605D02*
X50127595Y-187452605D01*
X46841880Y-166919735D02*
X46794261Y-166967355D01*
X46794261Y-166967355D02*
X46651404Y-167014974D01*
X46651404Y-167014974D02*
X46556166Y-167014974D01*
X46556166Y-167014974D02*
X46413309Y-166967355D01*
X46413309Y-166967355D02*
X46318071Y-166872116D01*
X46318071Y-166872116D02*
X46270452Y-166776878D01*
X46270452Y-166776878D02*
X46222833Y-166586402D01*
X46222833Y-166586402D02*
X46222833Y-166443545D01*
X46222833Y-166443545D02*
X46270452Y-166253069D01*
X46270452Y-166253069D02*
X46318071Y-166157831D01*
X46318071Y-166157831D02*
X46413309Y-166062593D01*
X46413309Y-166062593D02*
X46556166Y-166014974D01*
X46556166Y-166014974D02*
X46651404Y-166014974D01*
X46651404Y-166014974D02*
X46794261Y-166062593D01*
X46794261Y-166062593D02*
X46841880Y-166110212D01*
X47746642Y-167014974D02*
X47270452Y-167014974D01*
X47270452Y-167014974D02*
X47270452Y-166014974D01*
X48079976Y-166491164D02*
X48413309Y-166491164D01*
X48556166Y-167014974D02*
X48079976Y-167014974D01*
X48079976Y-167014974D02*
X48079976Y-166014974D01*
X48079976Y-166014974D02*
X48556166Y-166014974D01*
X48984738Y-167014974D02*
X48984738Y-166014974D01*
X48984738Y-166014974D02*
X49222833Y-166014974D01*
X49222833Y-166014974D02*
X49365690Y-166062593D01*
X49365690Y-166062593D02*
X49460928Y-166157831D01*
X49460928Y-166157831D02*
X49508547Y-166253069D01*
X49508547Y-166253069D02*
X49556166Y-166443545D01*
X49556166Y-166443545D02*
X49556166Y-166586402D01*
X49556166Y-166586402D02*
X49508547Y-166776878D01*
X49508547Y-166776878D02*
X49460928Y-166872116D01*
X49460928Y-166872116D02*
X49365690Y-166967355D01*
X49365690Y-166967355D02*
X49222833Y-167014974D01*
X49222833Y-167014974D02*
X48984738Y-167014974D01*
X50413309Y-166014974D02*
X50222833Y-166014974D01*
X50222833Y-166014974D02*
X50127595Y-166062593D01*
X50127595Y-166062593D02*
X50079976Y-166110212D01*
X50079976Y-166110212D02*
X49984738Y-166253069D01*
X49984738Y-166253069D02*
X49937119Y-166443545D01*
X49937119Y-166443545D02*
X49937119Y-166824497D01*
X49937119Y-166824497D02*
X49984738Y-166919735D01*
X49984738Y-166919735D02*
X50032357Y-166967355D01*
X50032357Y-166967355D02*
X50127595Y-167014974D01*
X50127595Y-167014974D02*
X50318071Y-167014974D01*
X50318071Y-167014974D02*
X50413309Y-166967355D01*
X50413309Y-166967355D02*
X50460928Y-166919735D01*
X50460928Y-166919735D02*
X50508547Y-166824497D01*
X50508547Y-166824497D02*
X50508547Y-166586402D01*
X50508547Y-166586402D02*
X50460928Y-166491164D01*
X50460928Y-166491164D02*
X50413309Y-166443545D01*
X50413309Y-166443545D02*
X50318071Y-166395926D01*
X50318071Y-166395926D02*
X50127595Y-166395926D01*
X50127595Y-166395926D02*
X50032357Y-166443545D01*
X50032357Y-166443545D02*
X49984738Y-166491164D01*
X49984738Y-166491164D02*
X49937119Y-166586402D01*
X46841880Y-146482104D02*
X46794261Y-146529724D01*
X46794261Y-146529724D02*
X46651404Y-146577343D01*
X46651404Y-146577343D02*
X46556166Y-146577343D01*
X46556166Y-146577343D02*
X46413309Y-146529724D01*
X46413309Y-146529724D02*
X46318071Y-146434485D01*
X46318071Y-146434485D02*
X46270452Y-146339247D01*
X46270452Y-146339247D02*
X46222833Y-146148771D01*
X46222833Y-146148771D02*
X46222833Y-146005914D01*
X46222833Y-146005914D02*
X46270452Y-145815438D01*
X46270452Y-145815438D02*
X46318071Y-145720200D01*
X46318071Y-145720200D02*
X46413309Y-145624962D01*
X46413309Y-145624962D02*
X46556166Y-145577343D01*
X46556166Y-145577343D02*
X46651404Y-145577343D01*
X46651404Y-145577343D02*
X46794261Y-145624962D01*
X46794261Y-145624962D02*
X46841880Y-145672581D01*
X47746642Y-146577343D02*
X47270452Y-146577343D01*
X47270452Y-146577343D02*
X47270452Y-145577343D01*
X48079976Y-146053533D02*
X48413309Y-146053533D01*
X48556166Y-146577343D02*
X48079976Y-146577343D01*
X48079976Y-146577343D02*
X48079976Y-145577343D01*
X48079976Y-145577343D02*
X48556166Y-145577343D01*
X48984738Y-146577343D02*
X48984738Y-145577343D01*
X48984738Y-145577343D02*
X49222833Y-145577343D01*
X49222833Y-145577343D02*
X49365690Y-145624962D01*
X49365690Y-145624962D02*
X49460928Y-145720200D01*
X49460928Y-145720200D02*
X49508547Y-145815438D01*
X49508547Y-145815438D02*
X49556166Y-146005914D01*
X49556166Y-146005914D02*
X49556166Y-146148771D01*
X49556166Y-146148771D02*
X49508547Y-146339247D01*
X49508547Y-146339247D02*
X49460928Y-146434485D01*
X49460928Y-146434485D02*
X49365690Y-146529724D01*
X49365690Y-146529724D02*
X49222833Y-146577343D01*
X49222833Y-146577343D02*
X48984738Y-146577343D01*
X50460928Y-145577343D02*
X49984738Y-145577343D01*
X49984738Y-145577343D02*
X49937119Y-146053533D01*
X49937119Y-146053533D02*
X49984738Y-146005914D01*
X49984738Y-146005914D02*
X50079976Y-145958295D01*
X50079976Y-145958295D02*
X50318071Y-145958295D01*
X50318071Y-145958295D02*
X50413309Y-146005914D01*
X50413309Y-146005914D02*
X50460928Y-146053533D01*
X50460928Y-146053533D02*
X50508547Y-146148771D01*
X50508547Y-146148771D02*
X50508547Y-146386866D01*
X50508547Y-146386866D02*
X50460928Y-146482104D01*
X50460928Y-146482104D02*
X50413309Y-146529724D01*
X50413309Y-146529724D02*
X50318071Y-146577343D01*
X50318071Y-146577343D02*
X50079976Y-146577343D01*
X50079976Y-146577343D02*
X49984738Y-146529724D01*
X49984738Y-146529724D02*
X49937119Y-146482104D01*
X46841880Y-126044473D02*
X46794261Y-126092093D01*
X46794261Y-126092093D02*
X46651404Y-126139712D01*
X46651404Y-126139712D02*
X46556166Y-126139712D01*
X46556166Y-126139712D02*
X46413309Y-126092093D01*
X46413309Y-126092093D02*
X46318071Y-125996854D01*
X46318071Y-125996854D02*
X46270452Y-125901616D01*
X46270452Y-125901616D02*
X46222833Y-125711140D01*
X46222833Y-125711140D02*
X46222833Y-125568283D01*
X46222833Y-125568283D02*
X46270452Y-125377807D01*
X46270452Y-125377807D02*
X46318071Y-125282569D01*
X46318071Y-125282569D02*
X46413309Y-125187331D01*
X46413309Y-125187331D02*
X46556166Y-125139712D01*
X46556166Y-125139712D02*
X46651404Y-125139712D01*
X46651404Y-125139712D02*
X46794261Y-125187331D01*
X46794261Y-125187331D02*
X46841880Y-125234950D01*
X47746642Y-126139712D02*
X47270452Y-126139712D01*
X47270452Y-126139712D02*
X47270452Y-125139712D01*
X48079976Y-125615902D02*
X48413309Y-125615902D01*
X48556166Y-126139712D02*
X48079976Y-126139712D01*
X48079976Y-126139712D02*
X48079976Y-125139712D01*
X48079976Y-125139712D02*
X48556166Y-125139712D01*
X48984738Y-126139712D02*
X48984738Y-125139712D01*
X48984738Y-125139712D02*
X49222833Y-125139712D01*
X49222833Y-125139712D02*
X49365690Y-125187331D01*
X49365690Y-125187331D02*
X49460928Y-125282569D01*
X49460928Y-125282569D02*
X49508547Y-125377807D01*
X49508547Y-125377807D02*
X49556166Y-125568283D01*
X49556166Y-125568283D02*
X49556166Y-125711140D01*
X49556166Y-125711140D02*
X49508547Y-125901616D01*
X49508547Y-125901616D02*
X49460928Y-125996854D01*
X49460928Y-125996854D02*
X49365690Y-126092093D01*
X49365690Y-126092093D02*
X49222833Y-126139712D01*
X49222833Y-126139712D02*
X48984738Y-126139712D01*
X50413309Y-125473045D02*
X50413309Y-126139712D01*
X50175214Y-125092093D02*
X49937119Y-125806378D01*
X49937119Y-125806378D02*
X50556166Y-125806378D01*
X46841880Y-105606842D02*
X46794261Y-105654462D01*
X46794261Y-105654462D02*
X46651404Y-105702081D01*
X46651404Y-105702081D02*
X46556166Y-105702081D01*
X46556166Y-105702081D02*
X46413309Y-105654462D01*
X46413309Y-105654462D02*
X46318071Y-105559223D01*
X46318071Y-105559223D02*
X46270452Y-105463985D01*
X46270452Y-105463985D02*
X46222833Y-105273509D01*
X46222833Y-105273509D02*
X46222833Y-105130652D01*
X46222833Y-105130652D02*
X46270452Y-104940176D01*
X46270452Y-104940176D02*
X46318071Y-104844938D01*
X46318071Y-104844938D02*
X46413309Y-104749700D01*
X46413309Y-104749700D02*
X46556166Y-104702081D01*
X46556166Y-104702081D02*
X46651404Y-104702081D01*
X46651404Y-104702081D02*
X46794261Y-104749700D01*
X46794261Y-104749700D02*
X46841880Y-104797319D01*
X47746642Y-105702081D02*
X47270452Y-105702081D01*
X47270452Y-105702081D02*
X47270452Y-104702081D01*
X48079976Y-105178271D02*
X48413309Y-105178271D01*
X48556166Y-105702081D02*
X48079976Y-105702081D01*
X48079976Y-105702081D02*
X48079976Y-104702081D01*
X48079976Y-104702081D02*
X48556166Y-104702081D01*
X48984738Y-105702081D02*
X48984738Y-104702081D01*
X48984738Y-104702081D02*
X49222833Y-104702081D01*
X49222833Y-104702081D02*
X49365690Y-104749700D01*
X49365690Y-104749700D02*
X49460928Y-104844938D01*
X49460928Y-104844938D02*
X49508547Y-104940176D01*
X49508547Y-104940176D02*
X49556166Y-105130652D01*
X49556166Y-105130652D02*
X49556166Y-105273509D01*
X49556166Y-105273509D02*
X49508547Y-105463985D01*
X49508547Y-105463985D02*
X49460928Y-105559223D01*
X49460928Y-105559223D02*
X49365690Y-105654462D01*
X49365690Y-105654462D02*
X49222833Y-105702081D01*
X49222833Y-105702081D02*
X48984738Y-105702081D01*
X49889500Y-104702081D02*
X50508547Y-104702081D01*
X50508547Y-104702081D02*
X50175214Y-105083033D01*
X50175214Y-105083033D02*
X50318071Y-105083033D01*
X50318071Y-105083033D02*
X50413309Y-105130652D01*
X50413309Y-105130652D02*
X50460928Y-105178271D01*
X50460928Y-105178271D02*
X50508547Y-105273509D01*
X50508547Y-105273509D02*
X50508547Y-105511604D01*
X50508547Y-105511604D02*
X50460928Y-105606842D01*
X50460928Y-105606842D02*
X50413309Y-105654462D01*
X50413309Y-105654462D02*
X50318071Y-105702081D01*
X50318071Y-105702081D02*
X50032357Y-105702081D01*
X50032357Y-105702081D02*
X49937119Y-105654462D01*
X49937119Y-105654462D02*
X49889500Y-105606842D01*
X46841880Y-64731580D02*
X46794261Y-64779200D01*
X46794261Y-64779200D02*
X46651404Y-64826819D01*
X46651404Y-64826819D02*
X46556166Y-64826819D01*
X46556166Y-64826819D02*
X46413309Y-64779200D01*
X46413309Y-64779200D02*
X46318071Y-64683961D01*
X46318071Y-64683961D02*
X46270452Y-64588723D01*
X46270452Y-64588723D02*
X46222833Y-64398247D01*
X46222833Y-64398247D02*
X46222833Y-64255390D01*
X46222833Y-64255390D02*
X46270452Y-64064914D01*
X46270452Y-64064914D02*
X46318071Y-63969676D01*
X46318071Y-63969676D02*
X46413309Y-63874438D01*
X46413309Y-63874438D02*
X46556166Y-63826819D01*
X46556166Y-63826819D02*
X46651404Y-63826819D01*
X46651404Y-63826819D02*
X46794261Y-63874438D01*
X46794261Y-63874438D02*
X46841880Y-63922057D01*
X47746642Y-64826819D02*
X47270452Y-64826819D01*
X47270452Y-64826819D02*
X47270452Y-63826819D01*
X48079976Y-64303009D02*
X48413309Y-64303009D01*
X48556166Y-64826819D02*
X48079976Y-64826819D01*
X48079976Y-64826819D02*
X48079976Y-63826819D01*
X48079976Y-63826819D02*
X48556166Y-63826819D01*
X48984738Y-64826819D02*
X48984738Y-63826819D01*
X48984738Y-63826819D02*
X49222833Y-63826819D01*
X49222833Y-63826819D02*
X49365690Y-63874438D01*
X49365690Y-63874438D02*
X49460928Y-63969676D01*
X49460928Y-63969676D02*
X49508547Y-64064914D01*
X49508547Y-64064914D02*
X49556166Y-64255390D01*
X49556166Y-64255390D02*
X49556166Y-64398247D01*
X49556166Y-64398247D02*
X49508547Y-64588723D01*
X49508547Y-64588723D02*
X49460928Y-64683961D01*
X49460928Y-64683961D02*
X49365690Y-64779200D01*
X49365690Y-64779200D02*
X49222833Y-64826819D01*
X49222833Y-64826819D02*
X48984738Y-64826819D01*
X50508547Y-64826819D02*
X49937119Y-64826819D01*
X50222833Y-64826819D02*
X50222833Y-63826819D01*
X50222833Y-63826819D02*
X50127595Y-63969676D01*
X50127595Y-63969676D02*
X50032357Y-64064914D01*
X50032357Y-64064914D02*
X49937119Y-64112533D01*
X46770451Y-443799819D02*
X46294261Y-443799819D01*
X46294261Y-443799819D02*
X46294261Y-442799819D01*
X47103785Y-443276009D02*
X47437118Y-443276009D01*
X47579975Y-443799819D02*
X47103785Y-443799819D01*
X47103785Y-443799819D02*
X47103785Y-442799819D01*
X47103785Y-442799819D02*
X47579975Y-442799819D01*
X48008547Y-443799819D02*
X48008547Y-442799819D01*
X48008547Y-442799819D02*
X48246642Y-442799819D01*
X48246642Y-442799819D02*
X48389499Y-442847438D01*
X48389499Y-442847438D02*
X48484737Y-442942676D01*
X48484737Y-442942676D02*
X48532356Y-443037914D01*
X48532356Y-443037914D02*
X48579975Y-443228390D01*
X48579975Y-443228390D02*
X48579975Y-443371247D01*
X48579975Y-443371247D02*
X48532356Y-443561723D01*
X48532356Y-443561723D02*
X48484737Y-443656961D01*
X48484737Y-443656961D02*
X48389499Y-443752200D01*
X48389499Y-443752200D02*
X48246642Y-443799819D01*
X48246642Y-443799819D02*
X48008547Y-443799819D01*
X48960928Y-442895057D02*
X49008547Y-442847438D01*
X49008547Y-442847438D02*
X49103785Y-442799819D01*
X49103785Y-442799819D02*
X49341880Y-442799819D01*
X49341880Y-442799819D02*
X49437118Y-442847438D01*
X49437118Y-442847438D02*
X49484737Y-442895057D01*
X49484737Y-442895057D02*
X49532356Y-442990295D01*
X49532356Y-442990295D02*
X49532356Y-443085533D01*
X49532356Y-443085533D02*
X49484737Y-443228390D01*
X49484737Y-443228390D02*
X48913309Y-443799819D01*
X48913309Y-443799819D02*
X49532356Y-443799819D01*
X50151404Y-442799819D02*
X50246642Y-442799819D01*
X50246642Y-442799819D02*
X50341880Y-442847438D01*
X50341880Y-442847438D02*
X50389499Y-442895057D01*
X50389499Y-442895057D02*
X50437118Y-442990295D01*
X50437118Y-442990295D02*
X50484737Y-443180771D01*
X50484737Y-443180771D02*
X50484737Y-443418866D01*
X50484737Y-443418866D02*
X50437118Y-443609342D01*
X50437118Y-443609342D02*
X50389499Y-443704580D01*
X50389499Y-443704580D02*
X50341880Y-443752200D01*
X50341880Y-443752200D02*
X50246642Y-443799819D01*
X50246642Y-443799819D02*
X50151404Y-443799819D01*
X50151404Y-443799819D02*
X50056166Y-443752200D01*
X50056166Y-443752200D02*
X50008547Y-443704580D01*
X50008547Y-443704580D02*
X49960928Y-443609342D01*
X49960928Y-443609342D02*
X49913309Y-443418866D01*
X49913309Y-443418866D02*
X49913309Y-443180771D01*
X49913309Y-443180771D02*
X49960928Y-442990295D01*
X49960928Y-442990295D02*
X50008547Y-442895057D01*
X50008547Y-442895057D02*
X50056166Y-442847438D01*
X50056166Y-442847438D02*
X50151404Y-442799819D01*
X47246642Y-55484819D02*
X46770452Y-55484819D01*
X46770452Y-55484819D02*
X46770452Y-54484819D01*
X47579976Y-54961009D02*
X47913309Y-54961009D01*
X48056166Y-55484819D02*
X47579976Y-55484819D01*
X47579976Y-55484819D02*
X47579976Y-54484819D01*
X47579976Y-54484819D02*
X48056166Y-54484819D01*
X48484738Y-55484819D02*
X48484738Y-54484819D01*
X48484738Y-54484819D02*
X48722833Y-54484819D01*
X48722833Y-54484819D02*
X48865690Y-54532438D01*
X48865690Y-54532438D02*
X48960928Y-54627676D01*
X48960928Y-54627676D02*
X49008547Y-54722914D01*
X49008547Y-54722914D02*
X49056166Y-54913390D01*
X49056166Y-54913390D02*
X49056166Y-55056247D01*
X49056166Y-55056247D02*
X49008547Y-55246723D01*
X49008547Y-55246723D02*
X48960928Y-55341961D01*
X48960928Y-55341961D02*
X48865690Y-55437200D01*
X48865690Y-55437200D02*
X48722833Y-55484819D01*
X48722833Y-55484819D02*
X48484738Y-55484819D01*
X50008547Y-55484819D02*
X49437119Y-55484819D01*
X49722833Y-55484819D02*
X49722833Y-54484819D01*
X49722833Y-54484819D02*
X49627595Y-54627676D01*
X49627595Y-54627676D02*
X49532357Y-54722914D01*
X49532357Y-54722914D02*
X49437119Y-54770533D01*
X46770451Y-423362177D02*
X46294261Y-423362177D01*
X46294261Y-423362177D02*
X46294261Y-422362177D01*
X47103785Y-422838367D02*
X47437118Y-422838367D01*
X47579975Y-423362177D02*
X47103785Y-423362177D01*
X47103785Y-423362177D02*
X47103785Y-422362177D01*
X47103785Y-422362177D02*
X47579975Y-422362177D01*
X48008547Y-423362177D02*
X48008547Y-422362177D01*
X48008547Y-422362177D02*
X48246642Y-422362177D01*
X48246642Y-422362177D02*
X48389499Y-422409796D01*
X48389499Y-422409796D02*
X48484737Y-422505034D01*
X48484737Y-422505034D02*
X48532356Y-422600272D01*
X48532356Y-422600272D02*
X48579975Y-422790748D01*
X48579975Y-422790748D02*
X48579975Y-422933605D01*
X48579975Y-422933605D02*
X48532356Y-423124081D01*
X48532356Y-423124081D02*
X48484737Y-423219319D01*
X48484737Y-423219319D02*
X48389499Y-423314558D01*
X48389499Y-423314558D02*
X48246642Y-423362177D01*
X48246642Y-423362177D02*
X48008547Y-423362177D01*
X49532356Y-423362177D02*
X48960928Y-423362177D01*
X49246642Y-423362177D02*
X49246642Y-422362177D01*
X49246642Y-422362177D02*
X49151404Y-422505034D01*
X49151404Y-422505034D02*
X49056166Y-422600272D01*
X49056166Y-422600272D02*
X48960928Y-422647891D01*
X50008547Y-423362177D02*
X50199023Y-423362177D01*
X50199023Y-423362177D02*
X50294261Y-423314558D01*
X50294261Y-423314558D02*
X50341880Y-423266938D01*
X50341880Y-423266938D02*
X50437118Y-423124081D01*
X50437118Y-423124081D02*
X50484737Y-422933605D01*
X50484737Y-422933605D02*
X50484737Y-422552653D01*
X50484737Y-422552653D02*
X50437118Y-422457415D01*
X50437118Y-422457415D02*
X50389499Y-422409796D01*
X50389499Y-422409796D02*
X50294261Y-422362177D01*
X50294261Y-422362177D02*
X50103785Y-422362177D01*
X50103785Y-422362177D02*
X50008547Y-422409796D01*
X50008547Y-422409796D02*
X49960928Y-422457415D01*
X49960928Y-422457415D02*
X49913309Y-422552653D01*
X49913309Y-422552653D02*
X49913309Y-422790748D01*
X49913309Y-422790748D02*
X49960928Y-422885986D01*
X49960928Y-422885986D02*
X50008547Y-422933605D01*
X50008547Y-422933605D02*
X50103785Y-422981224D01*
X50103785Y-422981224D02*
X50294261Y-422981224D01*
X50294261Y-422981224D02*
X50389499Y-422933605D01*
X50389499Y-422933605D02*
X50437118Y-422885986D01*
X50437118Y-422885986D02*
X50484737Y-422790748D01*
X46770451Y-402924546D02*
X46294261Y-402924546D01*
X46294261Y-402924546D02*
X46294261Y-401924546D01*
X47103785Y-402400736D02*
X47437118Y-402400736D01*
X47579975Y-402924546D02*
X47103785Y-402924546D01*
X47103785Y-402924546D02*
X47103785Y-401924546D01*
X47103785Y-401924546D02*
X47579975Y-401924546D01*
X48008547Y-402924546D02*
X48008547Y-401924546D01*
X48008547Y-401924546D02*
X48246642Y-401924546D01*
X48246642Y-401924546D02*
X48389499Y-401972165D01*
X48389499Y-401972165D02*
X48484737Y-402067403D01*
X48484737Y-402067403D02*
X48532356Y-402162641D01*
X48532356Y-402162641D02*
X48579975Y-402353117D01*
X48579975Y-402353117D02*
X48579975Y-402495974D01*
X48579975Y-402495974D02*
X48532356Y-402686450D01*
X48532356Y-402686450D02*
X48484737Y-402781688D01*
X48484737Y-402781688D02*
X48389499Y-402876927D01*
X48389499Y-402876927D02*
X48246642Y-402924546D01*
X48246642Y-402924546D02*
X48008547Y-402924546D01*
X49532356Y-402924546D02*
X48960928Y-402924546D01*
X49246642Y-402924546D02*
X49246642Y-401924546D01*
X49246642Y-401924546D02*
X49151404Y-402067403D01*
X49151404Y-402067403D02*
X49056166Y-402162641D01*
X49056166Y-402162641D02*
X48960928Y-402210260D01*
X50103785Y-402353117D02*
X50008547Y-402305498D01*
X50008547Y-402305498D02*
X49960928Y-402257879D01*
X49960928Y-402257879D02*
X49913309Y-402162641D01*
X49913309Y-402162641D02*
X49913309Y-402115022D01*
X49913309Y-402115022D02*
X49960928Y-402019784D01*
X49960928Y-402019784D02*
X50008547Y-401972165D01*
X50008547Y-401972165D02*
X50103785Y-401924546D01*
X50103785Y-401924546D02*
X50294261Y-401924546D01*
X50294261Y-401924546D02*
X50389499Y-401972165D01*
X50389499Y-401972165D02*
X50437118Y-402019784D01*
X50437118Y-402019784D02*
X50484737Y-402115022D01*
X50484737Y-402115022D02*
X50484737Y-402162641D01*
X50484737Y-402162641D02*
X50437118Y-402257879D01*
X50437118Y-402257879D02*
X50389499Y-402305498D01*
X50389499Y-402305498D02*
X50294261Y-402353117D01*
X50294261Y-402353117D02*
X50103785Y-402353117D01*
X50103785Y-402353117D02*
X50008547Y-402400736D01*
X50008547Y-402400736D02*
X49960928Y-402448355D01*
X49960928Y-402448355D02*
X49913309Y-402543593D01*
X49913309Y-402543593D02*
X49913309Y-402734069D01*
X49913309Y-402734069D02*
X49960928Y-402829307D01*
X49960928Y-402829307D02*
X50008547Y-402876927D01*
X50008547Y-402876927D02*
X50103785Y-402924546D01*
X50103785Y-402924546D02*
X50294261Y-402924546D01*
X50294261Y-402924546D02*
X50389499Y-402876927D01*
X50389499Y-402876927D02*
X50437118Y-402829307D01*
X50437118Y-402829307D02*
X50484737Y-402734069D01*
X50484737Y-402734069D02*
X50484737Y-402543593D01*
X50484737Y-402543593D02*
X50437118Y-402448355D01*
X50437118Y-402448355D02*
X50389499Y-402400736D01*
X50389499Y-402400736D02*
X50294261Y-402353117D01*
X46770451Y-382486915D02*
X46294261Y-382486915D01*
X46294261Y-382486915D02*
X46294261Y-381486915D01*
X47103785Y-381963105D02*
X47437118Y-381963105D01*
X47579975Y-382486915D02*
X47103785Y-382486915D01*
X47103785Y-382486915D02*
X47103785Y-381486915D01*
X47103785Y-381486915D02*
X47579975Y-381486915D01*
X48008547Y-382486915D02*
X48008547Y-381486915D01*
X48008547Y-381486915D02*
X48246642Y-381486915D01*
X48246642Y-381486915D02*
X48389499Y-381534534D01*
X48389499Y-381534534D02*
X48484737Y-381629772D01*
X48484737Y-381629772D02*
X48532356Y-381725010D01*
X48532356Y-381725010D02*
X48579975Y-381915486D01*
X48579975Y-381915486D02*
X48579975Y-382058343D01*
X48579975Y-382058343D02*
X48532356Y-382248819D01*
X48532356Y-382248819D02*
X48484737Y-382344057D01*
X48484737Y-382344057D02*
X48389499Y-382439296D01*
X48389499Y-382439296D02*
X48246642Y-382486915D01*
X48246642Y-382486915D02*
X48008547Y-382486915D01*
X49532356Y-382486915D02*
X48960928Y-382486915D01*
X49246642Y-382486915D02*
X49246642Y-381486915D01*
X49246642Y-381486915D02*
X49151404Y-381629772D01*
X49151404Y-381629772D02*
X49056166Y-381725010D01*
X49056166Y-381725010D02*
X48960928Y-381772629D01*
X49865690Y-381486915D02*
X50532356Y-381486915D01*
X50532356Y-381486915D02*
X50103785Y-382486915D01*
X46770451Y-362049284D02*
X46294261Y-362049284D01*
X46294261Y-362049284D02*
X46294261Y-361049284D01*
X47103785Y-361525474D02*
X47437118Y-361525474D01*
X47579975Y-362049284D02*
X47103785Y-362049284D01*
X47103785Y-362049284D02*
X47103785Y-361049284D01*
X47103785Y-361049284D02*
X47579975Y-361049284D01*
X48008547Y-362049284D02*
X48008547Y-361049284D01*
X48008547Y-361049284D02*
X48246642Y-361049284D01*
X48246642Y-361049284D02*
X48389499Y-361096903D01*
X48389499Y-361096903D02*
X48484737Y-361192141D01*
X48484737Y-361192141D02*
X48532356Y-361287379D01*
X48532356Y-361287379D02*
X48579975Y-361477855D01*
X48579975Y-361477855D02*
X48579975Y-361620712D01*
X48579975Y-361620712D02*
X48532356Y-361811188D01*
X48532356Y-361811188D02*
X48484737Y-361906426D01*
X48484737Y-361906426D02*
X48389499Y-362001665D01*
X48389499Y-362001665D02*
X48246642Y-362049284D01*
X48246642Y-362049284D02*
X48008547Y-362049284D01*
X49532356Y-362049284D02*
X48960928Y-362049284D01*
X49246642Y-362049284D02*
X49246642Y-361049284D01*
X49246642Y-361049284D02*
X49151404Y-361192141D01*
X49151404Y-361192141D02*
X49056166Y-361287379D01*
X49056166Y-361287379D02*
X48960928Y-361334998D01*
X50389499Y-361049284D02*
X50199023Y-361049284D01*
X50199023Y-361049284D02*
X50103785Y-361096903D01*
X50103785Y-361096903D02*
X50056166Y-361144522D01*
X50056166Y-361144522D02*
X49960928Y-361287379D01*
X49960928Y-361287379D02*
X49913309Y-361477855D01*
X49913309Y-361477855D02*
X49913309Y-361858807D01*
X49913309Y-361858807D02*
X49960928Y-361954045D01*
X49960928Y-361954045D02*
X50008547Y-362001665D01*
X50008547Y-362001665D02*
X50103785Y-362049284D01*
X50103785Y-362049284D02*
X50294261Y-362049284D01*
X50294261Y-362049284D02*
X50389499Y-362001665D01*
X50389499Y-362001665D02*
X50437118Y-361954045D01*
X50437118Y-361954045D02*
X50484737Y-361858807D01*
X50484737Y-361858807D02*
X50484737Y-361620712D01*
X50484737Y-361620712D02*
X50437118Y-361525474D01*
X50437118Y-361525474D02*
X50389499Y-361477855D01*
X50389499Y-361477855D02*
X50294261Y-361430236D01*
X50294261Y-361430236D02*
X50103785Y-361430236D01*
X50103785Y-361430236D02*
X50008547Y-361477855D01*
X50008547Y-361477855D02*
X49960928Y-361525474D01*
X49960928Y-361525474D02*
X49913309Y-361620712D01*
X46770451Y-341611653D02*
X46294261Y-341611653D01*
X46294261Y-341611653D02*
X46294261Y-340611653D01*
X47103785Y-341087843D02*
X47437118Y-341087843D01*
X47579975Y-341611653D02*
X47103785Y-341611653D01*
X47103785Y-341611653D02*
X47103785Y-340611653D01*
X47103785Y-340611653D02*
X47579975Y-340611653D01*
X48008547Y-341611653D02*
X48008547Y-340611653D01*
X48008547Y-340611653D02*
X48246642Y-340611653D01*
X48246642Y-340611653D02*
X48389499Y-340659272D01*
X48389499Y-340659272D02*
X48484737Y-340754510D01*
X48484737Y-340754510D02*
X48532356Y-340849748D01*
X48532356Y-340849748D02*
X48579975Y-341040224D01*
X48579975Y-341040224D02*
X48579975Y-341183081D01*
X48579975Y-341183081D02*
X48532356Y-341373557D01*
X48532356Y-341373557D02*
X48484737Y-341468795D01*
X48484737Y-341468795D02*
X48389499Y-341564034D01*
X48389499Y-341564034D02*
X48246642Y-341611653D01*
X48246642Y-341611653D02*
X48008547Y-341611653D01*
X49532356Y-341611653D02*
X48960928Y-341611653D01*
X49246642Y-341611653D02*
X49246642Y-340611653D01*
X49246642Y-340611653D02*
X49151404Y-340754510D01*
X49151404Y-340754510D02*
X49056166Y-340849748D01*
X49056166Y-340849748D02*
X48960928Y-340897367D01*
X50437118Y-340611653D02*
X49960928Y-340611653D01*
X49960928Y-340611653D02*
X49913309Y-341087843D01*
X49913309Y-341087843D02*
X49960928Y-341040224D01*
X49960928Y-341040224D02*
X50056166Y-340992605D01*
X50056166Y-340992605D02*
X50294261Y-340992605D01*
X50294261Y-340992605D02*
X50389499Y-341040224D01*
X50389499Y-341040224D02*
X50437118Y-341087843D01*
X50437118Y-341087843D02*
X50484737Y-341183081D01*
X50484737Y-341183081D02*
X50484737Y-341421176D01*
X50484737Y-341421176D02*
X50437118Y-341516414D01*
X50437118Y-341516414D02*
X50389499Y-341564034D01*
X50389499Y-341564034D02*
X50294261Y-341611653D01*
X50294261Y-341611653D02*
X50056166Y-341611653D01*
X50056166Y-341611653D02*
X49960928Y-341564034D01*
X49960928Y-341564034D02*
X49913309Y-341516414D01*
X46770451Y-321174022D02*
X46294261Y-321174022D01*
X46294261Y-321174022D02*
X46294261Y-320174022D01*
X47103785Y-320650212D02*
X47437118Y-320650212D01*
X47579975Y-321174022D02*
X47103785Y-321174022D01*
X47103785Y-321174022D02*
X47103785Y-320174022D01*
X47103785Y-320174022D02*
X47579975Y-320174022D01*
X48008547Y-321174022D02*
X48008547Y-320174022D01*
X48008547Y-320174022D02*
X48246642Y-320174022D01*
X48246642Y-320174022D02*
X48389499Y-320221641D01*
X48389499Y-320221641D02*
X48484737Y-320316879D01*
X48484737Y-320316879D02*
X48532356Y-320412117D01*
X48532356Y-320412117D02*
X48579975Y-320602593D01*
X48579975Y-320602593D02*
X48579975Y-320745450D01*
X48579975Y-320745450D02*
X48532356Y-320935926D01*
X48532356Y-320935926D02*
X48484737Y-321031164D01*
X48484737Y-321031164D02*
X48389499Y-321126403D01*
X48389499Y-321126403D02*
X48246642Y-321174022D01*
X48246642Y-321174022D02*
X48008547Y-321174022D01*
X49532356Y-321174022D02*
X48960928Y-321174022D01*
X49246642Y-321174022D02*
X49246642Y-320174022D01*
X49246642Y-320174022D02*
X49151404Y-320316879D01*
X49151404Y-320316879D02*
X49056166Y-320412117D01*
X49056166Y-320412117D02*
X48960928Y-320459736D01*
X50389499Y-320507355D02*
X50389499Y-321174022D01*
X50151404Y-320126403D02*
X49913309Y-320840688D01*
X49913309Y-320840688D02*
X50532356Y-320840688D01*
X46770451Y-300736391D02*
X46294261Y-300736391D01*
X46294261Y-300736391D02*
X46294261Y-299736391D01*
X47103785Y-300212581D02*
X47437118Y-300212581D01*
X47579975Y-300736391D02*
X47103785Y-300736391D01*
X47103785Y-300736391D02*
X47103785Y-299736391D01*
X47103785Y-299736391D02*
X47579975Y-299736391D01*
X48008547Y-300736391D02*
X48008547Y-299736391D01*
X48008547Y-299736391D02*
X48246642Y-299736391D01*
X48246642Y-299736391D02*
X48389499Y-299784010D01*
X48389499Y-299784010D02*
X48484737Y-299879248D01*
X48484737Y-299879248D02*
X48532356Y-299974486D01*
X48532356Y-299974486D02*
X48579975Y-300164962D01*
X48579975Y-300164962D02*
X48579975Y-300307819D01*
X48579975Y-300307819D02*
X48532356Y-300498295D01*
X48532356Y-300498295D02*
X48484737Y-300593533D01*
X48484737Y-300593533D02*
X48389499Y-300688772D01*
X48389499Y-300688772D02*
X48246642Y-300736391D01*
X48246642Y-300736391D02*
X48008547Y-300736391D01*
X49532356Y-300736391D02*
X48960928Y-300736391D01*
X49246642Y-300736391D02*
X49246642Y-299736391D01*
X49246642Y-299736391D02*
X49151404Y-299879248D01*
X49151404Y-299879248D02*
X49056166Y-299974486D01*
X49056166Y-299974486D02*
X48960928Y-300022105D01*
X49865690Y-299736391D02*
X50484737Y-299736391D01*
X50484737Y-299736391D02*
X50151404Y-300117343D01*
X50151404Y-300117343D02*
X50294261Y-300117343D01*
X50294261Y-300117343D02*
X50389499Y-300164962D01*
X50389499Y-300164962D02*
X50437118Y-300212581D01*
X50437118Y-300212581D02*
X50484737Y-300307819D01*
X50484737Y-300307819D02*
X50484737Y-300545914D01*
X50484737Y-300545914D02*
X50437118Y-300641152D01*
X50437118Y-300641152D02*
X50389499Y-300688772D01*
X50389499Y-300688772D02*
X50294261Y-300736391D01*
X50294261Y-300736391D02*
X50008547Y-300736391D01*
X50008547Y-300736391D02*
X49913309Y-300688772D01*
X49913309Y-300688772D02*
X49865690Y-300641152D01*
X46770451Y-280298760D02*
X46294261Y-280298760D01*
X46294261Y-280298760D02*
X46294261Y-279298760D01*
X47103785Y-279774950D02*
X47437118Y-279774950D01*
X47579975Y-280298760D02*
X47103785Y-280298760D01*
X47103785Y-280298760D02*
X47103785Y-279298760D01*
X47103785Y-279298760D02*
X47579975Y-279298760D01*
X48008547Y-280298760D02*
X48008547Y-279298760D01*
X48008547Y-279298760D02*
X48246642Y-279298760D01*
X48246642Y-279298760D02*
X48389499Y-279346379D01*
X48389499Y-279346379D02*
X48484737Y-279441617D01*
X48484737Y-279441617D02*
X48532356Y-279536855D01*
X48532356Y-279536855D02*
X48579975Y-279727331D01*
X48579975Y-279727331D02*
X48579975Y-279870188D01*
X48579975Y-279870188D02*
X48532356Y-280060664D01*
X48532356Y-280060664D02*
X48484737Y-280155902D01*
X48484737Y-280155902D02*
X48389499Y-280251141D01*
X48389499Y-280251141D02*
X48246642Y-280298760D01*
X48246642Y-280298760D02*
X48008547Y-280298760D01*
X49532356Y-280298760D02*
X48960928Y-280298760D01*
X49246642Y-280298760D02*
X49246642Y-279298760D01*
X49246642Y-279298760D02*
X49151404Y-279441617D01*
X49151404Y-279441617D02*
X49056166Y-279536855D01*
X49056166Y-279536855D02*
X48960928Y-279584474D01*
X49913309Y-279393998D02*
X49960928Y-279346379D01*
X49960928Y-279346379D02*
X50056166Y-279298760D01*
X50056166Y-279298760D02*
X50294261Y-279298760D01*
X50294261Y-279298760D02*
X50389499Y-279346379D01*
X50389499Y-279346379D02*
X50437118Y-279393998D01*
X50437118Y-279393998D02*
X50484737Y-279489236D01*
X50484737Y-279489236D02*
X50484737Y-279584474D01*
X50484737Y-279584474D02*
X50437118Y-279727331D01*
X50437118Y-279727331D02*
X49865690Y-280298760D01*
X49865690Y-280298760D02*
X50484737Y-280298760D01*
X46770451Y-259861129D02*
X46294261Y-259861129D01*
X46294261Y-259861129D02*
X46294261Y-258861129D01*
X47103785Y-259337319D02*
X47437118Y-259337319D01*
X47579975Y-259861129D02*
X47103785Y-259861129D01*
X47103785Y-259861129D02*
X47103785Y-258861129D01*
X47103785Y-258861129D02*
X47579975Y-258861129D01*
X48008547Y-259861129D02*
X48008547Y-258861129D01*
X48008547Y-258861129D02*
X48246642Y-258861129D01*
X48246642Y-258861129D02*
X48389499Y-258908748D01*
X48389499Y-258908748D02*
X48484737Y-259003986D01*
X48484737Y-259003986D02*
X48532356Y-259099224D01*
X48532356Y-259099224D02*
X48579975Y-259289700D01*
X48579975Y-259289700D02*
X48579975Y-259432557D01*
X48579975Y-259432557D02*
X48532356Y-259623033D01*
X48532356Y-259623033D02*
X48484737Y-259718271D01*
X48484737Y-259718271D02*
X48389499Y-259813510D01*
X48389499Y-259813510D02*
X48246642Y-259861129D01*
X48246642Y-259861129D02*
X48008547Y-259861129D01*
X49532356Y-259861129D02*
X48960928Y-259861129D01*
X49246642Y-259861129D02*
X49246642Y-258861129D01*
X49246642Y-258861129D02*
X49151404Y-259003986D01*
X49151404Y-259003986D02*
X49056166Y-259099224D01*
X49056166Y-259099224D02*
X48960928Y-259146843D01*
X50484737Y-259861129D02*
X49913309Y-259861129D01*
X50199023Y-259861129D02*
X50199023Y-258861129D01*
X50199023Y-258861129D02*
X50103785Y-259003986D01*
X50103785Y-259003986D02*
X50008547Y-259099224D01*
X50008547Y-259099224D02*
X49913309Y-259146843D01*
X46770451Y-239423498D02*
X46294261Y-239423498D01*
X46294261Y-239423498D02*
X46294261Y-238423498D01*
X47103785Y-238899688D02*
X47437118Y-238899688D01*
X47579975Y-239423498D02*
X47103785Y-239423498D01*
X47103785Y-239423498D02*
X47103785Y-238423498D01*
X47103785Y-238423498D02*
X47579975Y-238423498D01*
X48008547Y-239423498D02*
X48008547Y-238423498D01*
X48008547Y-238423498D02*
X48246642Y-238423498D01*
X48246642Y-238423498D02*
X48389499Y-238471117D01*
X48389499Y-238471117D02*
X48484737Y-238566355D01*
X48484737Y-238566355D02*
X48532356Y-238661593D01*
X48532356Y-238661593D02*
X48579975Y-238852069D01*
X48579975Y-238852069D02*
X48579975Y-238994926D01*
X48579975Y-238994926D02*
X48532356Y-239185402D01*
X48532356Y-239185402D02*
X48484737Y-239280640D01*
X48484737Y-239280640D02*
X48389499Y-239375879D01*
X48389499Y-239375879D02*
X48246642Y-239423498D01*
X48246642Y-239423498D02*
X48008547Y-239423498D01*
X49532356Y-239423498D02*
X48960928Y-239423498D01*
X49246642Y-239423498D02*
X49246642Y-238423498D01*
X49246642Y-238423498D02*
X49151404Y-238566355D01*
X49151404Y-238566355D02*
X49056166Y-238661593D01*
X49056166Y-238661593D02*
X48960928Y-238709212D01*
X50151404Y-238423498D02*
X50246642Y-238423498D01*
X50246642Y-238423498D02*
X50341880Y-238471117D01*
X50341880Y-238471117D02*
X50389499Y-238518736D01*
X50389499Y-238518736D02*
X50437118Y-238613974D01*
X50437118Y-238613974D02*
X50484737Y-238804450D01*
X50484737Y-238804450D02*
X50484737Y-239042545D01*
X50484737Y-239042545D02*
X50437118Y-239233021D01*
X50437118Y-239233021D02*
X50389499Y-239328259D01*
X50389499Y-239328259D02*
X50341880Y-239375879D01*
X50341880Y-239375879D02*
X50246642Y-239423498D01*
X50246642Y-239423498D02*
X50151404Y-239423498D01*
X50151404Y-239423498D02*
X50056166Y-239375879D01*
X50056166Y-239375879D02*
X50008547Y-239328259D01*
X50008547Y-239328259D02*
X49960928Y-239233021D01*
X49960928Y-239233021D02*
X49913309Y-239042545D01*
X49913309Y-239042545D02*
X49913309Y-238804450D01*
X49913309Y-238804450D02*
X49960928Y-238613974D01*
X49960928Y-238613974D02*
X50008547Y-238518736D01*
X50008547Y-238518736D02*
X50056166Y-238471117D01*
X50056166Y-238471117D02*
X50151404Y-238423498D01*
X47246642Y-218985867D02*
X46770452Y-218985867D01*
X46770452Y-218985867D02*
X46770452Y-217985867D01*
X47579976Y-218462057D02*
X47913309Y-218462057D01*
X48056166Y-218985867D02*
X47579976Y-218985867D01*
X47579976Y-218985867D02*
X47579976Y-217985867D01*
X47579976Y-217985867D02*
X48056166Y-217985867D01*
X48484738Y-218985867D02*
X48484738Y-217985867D01*
X48484738Y-217985867D02*
X48722833Y-217985867D01*
X48722833Y-217985867D02*
X48865690Y-218033486D01*
X48865690Y-218033486D02*
X48960928Y-218128724D01*
X48960928Y-218128724D02*
X49008547Y-218223962D01*
X49008547Y-218223962D02*
X49056166Y-218414438D01*
X49056166Y-218414438D02*
X49056166Y-218557295D01*
X49056166Y-218557295D02*
X49008547Y-218747771D01*
X49008547Y-218747771D02*
X48960928Y-218843009D01*
X48960928Y-218843009D02*
X48865690Y-218938248D01*
X48865690Y-218938248D02*
X48722833Y-218985867D01*
X48722833Y-218985867D02*
X48484738Y-218985867D01*
X49532357Y-218985867D02*
X49722833Y-218985867D01*
X49722833Y-218985867D02*
X49818071Y-218938248D01*
X49818071Y-218938248D02*
X49865690Y-218890628D01*
X49865690Y-218890628D02*
X49960928Y-218747771D01*
X49960928Y-218747771D02*
X50008547Y-218557295D01*
X50008547Y-218557295D02*
X50008547Y-218176343D01*
X50008547Y-218176343D02*
X49960928Y-218081105D01*
X49960928Y-218081105D02*
X49913309Y-218033486D01*
X49913309Y-218033486D02*
X49818071Y-217985867D01*
X49818071Y-217985867D02*
X49627595Y-217985867D01*
X49627595Y-217985867D02*
X49532357Y-218033486D01*
X49532357Y-218033486D02*
X49484738Y-218081105D01*
X49484738Y-218081105D02*
X49437119Y-218176343D01*
X49437119Y-218176343D02*
X49437119Y-218414438D01*
X49437119Y-218414438D02*
X49484738Y-218509676D01*
X49484738Y-218509676D02*
X49532357Y-218557295D01*
X49532357Y-218557295D02*
X49627595Y-218604914D01*
X49627595Y-218604914D02*
X49818071Y-218604914D01*
X49818071Y-218604914D02*
X49913309Y-218557295D01*
X49913309Y-218557295D02*
X49960928Y-218509676D01*
X49960928Y-218509676D02*
X50008547Y-218414438D01*
X47246642Y-198548236D02*
X46770452Y-198548236D01*
X46770452Y-198548236D02*
X46770452Y-197548236D01*
X47579976Y-198024426D02*
X47913309Y-198024426D01*
X48056166Y-198548236D02*
X47579976Y-198548236D01*
X47579976Y-198548236D02*
X47579976Y-197548236D01*
X47579976Y-197548236D02*
X48056166Y-197548236D01*
X48484738Y-198548236D02*
X48484738Y-197548236D01*
X48484738Y-197548236D02*
X48722833Y-197548236D01*
X48722833Y-197548236D02*
X48865690Y-197595855D01*
X48865690Y-197595855D02*
X48960928Y-197691093D01*
X48960928Y-197691093D02*
X49008547Y-197786331D01*
X49008547Y-197786331D02*
X49056166Y-197976807D01*
X49056166Y-197976807D02*
X49056166Y-198119664D01*
X49056166Y-198119664D02*
X49008547Y-198310140D01*
X49008547Y-198310140D02*
X48960928Y-198405378D01*
X48960928Y-198405378D02*
X48865690Y-198500617D01*
X48865690Y-198500617D02*
X48722833Y-198548236D01*
X48722833Y-198548236D02*
X48484738Y-198548236D01*
X49627595Y-197976807D02*
X49532357Y-197929188D01*
X49532357Y-197929188D02*
X49484738Y-197881569D01*
X49484738Y-197881569D02*
X49437119Y-197786331D01*
X49437119Y-197786331D02*
X49437119Y-197738712D01*
X49437119Y-197738712D02*
X49484738Y-197643474D01*
X49484738Y-197643474D02*
X49532357Y-197595855D01*
X49532357Y-197595855D02*
X49627595Y-197548236D01*
X49627595Y-197548236D02*
X49818071Y-197548236D01*
X49818071Y-197548236D02*
X49913309Y-197595855D01*
X49913309Y-197595855D02*
X49960928Y-197643474D01*
X49960928Y-197643474D02*
X50008547Y-197738712D01*
X50008547Y-197738712D02*
X50008547Y-197786331D01*
X50008547Y-197786331D02*
X49960928Y-197881569D01*
X49960928Y-197881569D02*
X49913309Y-197929188D01*
X49913309Y-197929188D02*
X49818071Y-197976807D01*
X49818071Y-197976807D02*
X49627595Y-197976807D01*
X49627595Y-197976807D02*
X49532357Y-198024426D01*
X49532357Y-198024426D02*
X49484738Y-198072045D01*
X49484738Y-198072045D02*
X49437119Y-198167283D01*
X49437119Y-198167283D02*
X49437119Y-198357759D01*
X49437119Y-198357759D02*
X49484738Y-198452997D01*
X49484738Y-198452997D02*
X49532357Y-198500617D01*
X49532357Y-198500617D02*
X49627595Y-198548236D01*
X49627595Y-198548236D02*
X49818071Y-198548236D01*
X49818071Y-198548236D02*
X49913309Y-198500617D01*
X49913309Y-198500617D02*
X49960928Y-198452997D01*
X49960928Y-198452997D02*
X50008547Y-198357759D01*
X50008547Y-198357759D02*
X50008547Y-198167283D01*
X50008547Y-198167283D02*
X49960928Y-198072045D01*
X49960928Y-198072045D02*
X49913309Y-198024426D01*
X49913309Y-198024426D02*
X49818071Y-197976807D01*
X47246642Y-178110605D02*
X46770452Y-178110605D01*
X46770452Y-178110605D02*
X46770452Y-177110605D01*
X47579976Y-177586795D02*
X47913309Y-177586795D01*
X48056166Y-178110605D02*
X47579976Y-178110605D01*
X47579976Y-178110605D02*
X47579976Y-177110605D01*
X47579976Y-177110605D02*
X48056166Y-177110605D01*
X48484738Y-178110605D02*
X48484738Y-177110605D01*
X48484738Y-177110605D02*
X48722833Y-177110605D01*
X48722833Y-177110605D02*
X48865690Y-177158224D01*
X48865690Y-177158224D02*
X48960928Y-177253462D01*
X48960928Y-177253462D02*
X49008547Y-177348700D01*
X49008547Y-177348700D02*
X49056166Y-177539176D01*
X49056166Y-177539176D02*
X49056166Y-177682033D01*
X49056166Y-177682033D02*
X49008547Y-177872509D01*
X49008547Y-177872509D02*
X48960928Y-177967747D01*
X48960928Y-177967747D02*
X48865690Y-178062986D01*
X48865690Y-178062986D02*
X48722833Y-178110605D01*
X48722833Y-178110605D02*
X48484738Y-178110605D01*
X49389500Y-177110605D02*
X50056166Y-177110605D01*
X50056166Y-177110605D02*
X49627595Y-178110605D01*
X47246642Y-157672974D02*
X46770452Y-157672974D01*
X46770452Y-157672974D02*
X46770452Y-156672974D01*
X47579976Y-157149164D02*
X47913309Y-157149164D01*
X48056166Y-157672974D02*
X47579976Y-157672974D01*
X47579976Y-157672974D02*
X47579976Y-156672974D01*
X47579976Y-156672974D02*
X48056166Y-156672974D01*
X48484738Y-157672974D02*
X48484738Y-156672974D01*
X48484738Y-156672974D02*
X48722833Y-156672974D01*
X48722833Y-156672974D02*
X48865690Y-156720593D01*
X48865690Y-156720593D02*
X48960928Y-156815831D01*
X48960928Y-156815831D02*
X49008547Y-156911069D01*
X49008547Y-156911069D02*
X49056166Y-157101545D01*
X49056166Y-157101545D02*
X49056166Y-157244402D01*
X49056166Y-157244402D02*
X49008547Y-157434878D01*
X49008547Y-157434878D02*
X48960928Y-157530116D01*
X48960928Y-157530116D02*
X48865690Y-157625355D01*
X48865690Y-157625355D02*
X48722833Y-157672974D01*
X48722833Y-157672974D02*
X48484738Y-157672974D01*
X49913309Y-156672974D02*
X49722833Y-156672974D01*
X49722833Y-156672974D02*
X49627595Y-156720593D01*
X49627595Y-156720593D02*
X49579976Y-156768212D01*
X49579976Y-156768212D02*
X49484738Y-156911069D01*
X49484738Y-156911069D02*
X49437119Y-157101545D01*
X49437119Y-157101545D02*
X49437119Y-157482497D01*
X49437119Y-157482497D02*
X49484738Y-157577735D01*
X49484738Y-157577735D02*
X49532357Y-157625355D01*
X49532357Y-157625355D02*
X49627595Y-157672974D01*
X49627595Y-157672974D02*
X49818071Y-157672974D01*
X49818071Y-157672974D02*
X49913309Y-157625355D01*
X49913309Y-157625355D02*
X49960928Y-157577735D01*
X49960928Y-157577735D02*
X50008547Y-157482497D01*
X50008547Y-157482497D02*
X50008547Y-157244402D01*
X50008547Y-157244402D02*
X49960928Y-157149164D01*
X49960928Y-157149164D02*
X49913309Y-157101545D01*
X49913309Y-157101545D02*
X49818071Y-157053926D01*
X49818071Y-157053926D02*
X49627595Y-157053926D01*
X49627595Y-157053926D02*
X49532357Y-157101545D01*
X49532357Y-157101545D02*
X49484738Y-157149164D01*
X49484738Y-157149164D02*
X49437119Y-157244402D01*
X47246642Y-137235343D02*
X46770452Y-137235343D01*
X46770452Y-137235343D02*
X46770452Y-136235343D01*
X47579976Y-136711533D02*
X47913309Y-136711533D01*
X48056166Y-137235343D02*
X47579976Y-137235343D01*
X47579976Y-137235343D02*
X47579976Y-136235343D01*
X47579976Y-136235343D02*
X48056166Y-136235343D01*
X48484738Y-137235343D02*
X48484738Y-136235343D01*
X48484738Y-136235343D02*
X48722833Y-136235343D01*
X48722833Y-136235343D02*
X48865690Y-136282962D01*
X48865690Y-136282962D02*
X48960928Y-136378200D01*
X48960928Y-136378200D02*
X49008547Y-136473438D01*
X49008547Y-136473438D02*
X49056166Y-136663914D01*
X49056166Y-136663914D02*
X49056166Y-136806771D01*
X49056166Y-136806771D02*
X49008547Y-136997247D01*
X49008547Y-136997247D02*
X48960928Y-137092485D01*
X48960928Y-137092485D02*
X48865690Y-137187724D01*
X48865690Y-137187724D02*
X48722833Y-137235343D01*
X48722833Y-137235343D02*
X48484738Y-137235343D01*
X49960928Y-136235343D02*
X49484738Y-136235343D01*
X49484738Y-136235343D02*
X49437119Y-136711533D01*
X49437119Y-136711533D02*
X49484738Y-136663914D01*
X49484738Y-136663914D02*
X49579976Y-136616295D01*
X49579976Y-136616295D02*
X49818071Y-136616295D01*
X49818071Y-136616295D02*
X49913309Y-136663914D01*
X49913309Y-136663914D02*
X49960928Y-136711533D01*
X49960928Y-136711533D02*
X50008547Y-136806771D01*
X50008547Y-136806771D02*
X50008547Y-137044866D01*
X50008547Y-137044866D02*
X49960928Y-137140104D01*
X49960928Y-137140104D02*
X49913309Y-137187724D01*
X49913309Y-137187724D02*
X49818071Y-137235343D01*
X49818071Y-137235343D02*
X49579976Y-137235343D01*
X49579976Y-137235343D02*
X49484738Y-137187724D01*
X49484738Y-137187724D02*
X49437119Y-137140104D01*
X47246642Y-116797712D02*
X46770452Y-116797712D01*
X46770452Y-116797712D02*
X46770452Y-115797712D01*
X47579976Y-116273902D02*
X47913309Y-116273902D01*
X48056166Y-116797712D02*
X47579976Y-116797712D01*
X47579976Y-116797712D02*
X47579976Y-115797712D01*
X47579976Y-115797712D02*
X48056166Y-115797712D01*
X48484738Y-116797712D02*
X48484738Y-115797712D01*
X48484738Y-115797712D02*
X48722833Y-115797712D01*
X48722833Y-115797712D02*
X48865690Y-115845331D01*
X48865690Y-115845331D02*
X48960928Y-115940569D01*
X48960928Y-115940569D02*
X49008547Y-116035807D01*
X49008547Y-116035807D02*
X49056166Y-116226283D01*
X49056166Y-116226283D02*
X49056166Y-116369140D01*
X49056166Y-116369140D02*
X49008547Y-116559616D01*
X49008547Y-116559616D02*
X48960928Y-116654854D01*
X48960928Y-116654854D02*
X48865690Y-116750093D01*
X48865690Y-116750093D02*
X48722833Y-116797712D01*
X48722833Y-116797712D02*
X48484738Y-116797712D01*
X49913309Y-116131045D02*
X49913309Y-116797712D01*
X49675214Y-115750093D02*
X49437119Y-116464378D01*
X49437119Y-116464378D02*
X50056166Y-116464378D01*
X47246642Y-96360081D02*
X46770452Y-96360081D01*
X46770452Y-96360081D02*
X46770452Y-95360081D01*
X47579976Y-95836271D02*
X47913309Y-95836271D01*
X48056166Y-96360081D02*
X47579976Y-96360081D01*
X47579976Y-96360081D02*
X47579976Y-95360081D01*
X47579976Y-95360081D02*
X48056166Y-95360081D01*
X48484738Y-96360081D02*
X48484738Y-95360081D01*
X48484738Y-95360081D02*
X48722833Y-95360081D01*
X48722833Y-95360081D02*
X48865690Y-95407700D01*
X48865690Y-95407700D02*
X48960928Y-95502938D01*
X48960928Y-95502938D02*
X49008547Y-95598176D01*
X49008547Y-95598176D02*
X49056166Y-95788652D01*
X49056166Y-95788652D02*
X49056166Y-95931509D01*
X49056166Y-95931509D02*
X49008547Y-96121985D01*
X49008547Y-96121985D02*
X48960928Y-96217223D01*
X48960928Y-96217223D02*
X48865690Y-96312462D01*
X48865690Y-96312462D02*
X48722833Y-96360081D01*
X48722833Y-96360081D02*
X48484738Y-96360081D01*
X49389500Y-95360081D02*
X50008547Y-95360081D01*
X50008547Y-95360081D02*
X49675214Y-95741033D01*
X49675214Y-95741033D02*
X49818071Y-95741033D01*
X49818071Y-95741033D02*
X49913309Y-95788652D01*
X49913309Y-95788652D02*
X49960928Y-95836271D01*
X49960928Y-95836271D02*
X50008547Y-95931509D01*
X50008547Y-95931509D02*
X50008547Y-96169604D01*
X50008547Y-96169604D02*
X49960928Y-96264842D01*
X49960928Y-96264842D02*
X49913309Y-96312462D01*
X49913309Y-96312462D02*
X49818071Y-96360081D01*
X49818071Y-96360081D02*
X49532357Y-96360081D01*
X49532357Y-96360081D02*
X49437119Y-96312462D01*
X49437119Y-96312462D02*
X49389500Y-96264842D01*
X47246642Y-75922450D02*
X46770452Y-75922450D01*
X46770452Y-75922450D02*
X46770452Y-74922450D01*
X47579976Y-75398640D02*
X47913309Y-75398640D01*
X48056166Y-75922450D02*
X47579976Y-75922450D01*
X47579976Y-75922450D02*
X47579976Y-74922450D01*
X47579976Y-74922450D02*
X48056166Y-74922450D01*
X48484738Y-75922450D02*
X48484738Y-74922450D01*
X48484738Y-74922450D02*
X48722833Y-74922450D01*
X48722833Y-74922450D02*
X48865690Y-74970069D01*
X48865690Y-74970069D02*
X48960928Y-75065307D01*
X48960928Y-75065307D02*
X49008547Y-75160545D01*
X49008547Y-75160545D02*
X49056166Y-75351021D01*
X49056166Y-75351021D02*
X49056166Y-75493878D01*
X49056166Y-75493878D02*
X49008547Y-75684354D01*
X49008547Y-75684354D02*
X48960928Y-75779592D01*
X48960928Y-75779592D02*
X48865690Y-75874831D01*
X48865690Y-75874831D02*
X48722833Y-75922450D01*
X48722833Y-75922450D02*
X48484738Y-75922450D01*
X49437119Y-75017688D02*
X49484738Y-74970069D01*
X49484738Y-74970069D02*
X49579976Y-74922450D01*
X49579976Y-74922450D02*
X49818071Y-74922450D01*
X49818071Y-74922450D02*
X49913309Y-74970069D01*
X49913309Y-74970069D02*
X49960928Y-75017688D01*
X49960928Y-75017688D02*
X50008547Y-75112926D01*
X50008547Y-75112926D02*
X50008547Y-75208164D01*
X50008547Y-75208164D02*
X49960928Y-75351021D01*
X49960928Y-75351021D02*
X49389500Y-75922450D01*
X49389500Y-75922450D02*
X50008547Y-75922450D01*
X50340419Y-454420266D02*
X49864228Y-454753599D01*
X50340419Y-454991694D02*
X49340419Y-454991694D01*
X49340419Y-454991694D02*
X49340419Y-454610742D01*
X49340419Y-454610742D02*
X49388038Y-454515504D01*
X49388038Y-454515504D02*
X49435657Y-454467885D01*
X49435657Y-454467885D02*
X49530895Y-454420266D01*
X49530895Y-454420266D02*
X49673752Y-454420266D01*
X49673752Y-454420266D02*
X49768990Y-454467885D01*
X49768990Y-454467885D02*
X49816609Y-454515504D01*
X49816609Y-454515504D02*
X49864228Y-454610742D01*
X49864228Y-454610742D02*
X49864228Y-454991694D01*
X50340419Y-453467885D02*
X50340419Y-454039313D01*
X50340419Y-453753599D02*
X49340419Y-453753599D01*
X49340419Y-453753599D02*
X49483276Y-453848837D01*
X49483276Y-453848837D02*
X49578514Y-453944075D01*
X49578514Y-453944075D02*
X49626133Y-454039313D01*
D12*
%TO.C,U2*%
X45770800Y-455793800D02*
X53450800Y-455793800D01*
X44500800Y-458453800D02*
X43170800Y-458453800D01*
X53450800Y-458453800D02*
X53450800Y-455793800D01*
X45770800Y-458453800D02*
X45770800Y-455793800D01*
X43170800Y-458453800D02*
X43170800Y-457123800D01*
X45770800Y-458453800D02*
X53450800Y-458453800D01*
%TO.C,CLED2*%
X48257854Y-86329631D02*
X48473526Y-86329631D01*
X48257854Y-85609631D02*
X48473526Y-85609631D01*
%TO.C,CLED20*%
X48257854Y-454207000D02*
X48473526Y-454207000D01*
X48257854Y-453487000D02*
X48473526Y-453487000D01*
%TO.C,CLED19*%
X48257854Y-433769358D02*
X48473526Y-433769358D01*
X48257854Y-433049358D02*
X48473526Y-433049358D01*
%TO.C,CLED18*%
X48257854Y-413331727D02*
X48473526Y-413331727D01*
X48257854Y-412611727D02*
X48473526Y-412611727D01*
%TO.C,CLED17*%
X48257854Y-392894096D02*
X48473526Y-392894096D01*
X48257854Y-392174096D02*
X48473526Y-392174096D01*
%TO.C,CLED16*%
X48257854Y-372456465D02*
X48473526Y-372456465D01*
X48257854Y-371736465D02*
X48473526Y-371736465D01*
%TO.C,CLED15*%
X48257854Y-352018834D02*
X48473526Y-352018834D01*
X48257854Y-351298834D02*
X48473526Y-351298834D01*
%TO.C,CLED14*%
X48257854Y-331581203D02*
X48473526Y-331581203D01*
X48257854Y-330861203D02*
X48473526Y-330861203D01*
%TO.C,CLED13*%
X48257854Y-311143572D02*
X48473526Y-311143572D01*
X48257854Y-310423572D02*
X48473526Y-310423572D01*
%TO.C,CLED12*%
X48257854Y-290705941D02*
X48473526Y-290705941D01*
X48257854Y-289985941D02*
X48473526Y-289985941D01*
%TO.C,CLED11*%
X48257854Y-270268310D02*
X48473526Y-270268310D01*
X48257854Y-269548310D02*
X48473526Y-269548310D01*
%TO.C,CLED10*%
X48257854Y-249830679D02*
X48473526Y-249830679D01*
X48257854Y-249110679D02*
X48473526Y-249110679D01*
%TO.C,CLED9*%
X48257854Y-229393048D02*
X48473526Y-229393048D01*
X48257854Y-228673048D02*
X48473526Y-228673048D01*
%TO.C,CLED8*%
X48257854Y-208955417D02*
X48473526Y-208955417D01*
X48257854Y-208235417D02*
X48473526Y-208235417D01*
%TO.C,CLED7*%
X48257854Y-188517786D02*
X48473526Y-188517786D01*
X48257854Y-187797786D02*
X48473526Y-187797786D01*
%TO.C,CLED6*%
X48257854Y-168080155D02*
X48473526Y-168080155D01*
X48257854Y-167360155D02*
X48473526Y-167360155D01*
%TO.C,CLED5*%
X48257854Y-147642524D02*
X48473526Y-147642524D01*
X48257854Y-146922524D02*
X48473526Y-146922524D01*
%TO.C,CLED4*%
X48257854Y-127204893D02*
X48473526Y-127204893D01*
X48257854Y-126484893D02*
X48473526Y-126484893D01*
%TO.C,CLED3*%
X48257854Y-106767262D02*
X48473526Y-106767262D01*
X48257854Y-106047262D02*
X48473526Y-106047262D01*
%TO.C,CLED1*%
X48257854Y-65892000D02*
X48473526Y-65892000D01*
X48257854Y-65172000D02*
X48473526Y-65172000D01*
D13*
%TO.C,LED20*%
X50865690Y-446445000D02*
X50865690Y-446715000D01*
X50865690Y-448175000D02*
X50865690Y-449715000D01*
X50865690Y-451175000D02*
X50865690Y-451445000D01*
X50865690Y-451445000D02*
X45865690Y-451445000D01*
X45865690Y-451445000D02*
X45865690Y-451175000D01*
X45865690Y-449715000D02*
X45865690Y-448175000D01*
X45865690Y-446715000D02*
X45865690Y-446445000D01*
X45865690Y-446445000D02*
X50865690Y-446445000D01*
X49865690Y-450745000D02*
X49865690Y-451445000D01*
X49865690Y-451445000D02*
X49165690Y-451445000D01*
X49165690Y-451445000D02*
X49865690Y-450745000D01*
X49865690Y-448945000D02*
G75*
G03*
X46865690Y-448945000I-1500000J0D01*
G01*
X46865690Y-448945000D02*
G75*
G03*
X49865690Y-448945000I1500000J0D01*
G01*
X45565690Y-446545000D02*
G75*
G03*
X45365690Y-446545000I-100000J0D01*
G01*
X45365690Y-446545000D02*
G75*
G03*
X45565690Y-446545000I100000J0D01*
G01*
%TO.C,LED1*%
X50865690Y-58130000D02*
X50865690Y-58400000D01*
X50865690Y-59860000D02*
X50865690Y-61400000D01*
X50865690Y-62860000D02*
X50865690Y-63130000D01*
X50865690Y-63130000D02*
X45865690Y-63130000D01*
X45865690Y-63130000D02*
X45865690Y-62860000D01*
X45865690Y-61400000D02*
X45865690Y-59860000D01*
X45865690Y-58400000D02*
X45865690Y-58130000D01*
X45865690Y-58130000D02*
X50865690Y-58130000D01*
X49865690Y-62430000D02*
X49865690Y-63130000D01*
X49865690Y-63130000D02*
X49165690Y-63130000D01*
X49165690Y-63130000D02*
X49865690Y-62430000D01*
X49865690Y-60630000D02*
G75*
G03*
X46865690Y-60630000I-1500000J0D01*
G01*
X46865690Y-60630000D02*
G75*
G03*
X49865690Y-60630000I1500000J0D01*
G01*
X45565690Y-58230000D02*
G75*
G03*
X45365690Y-58230000I-100000J0D01*
G01*
X45365690Y-58230000D02*
G75*
G03*
X45565690Y-58230000I100000J0D01*
G01*
%TO.C,LED19*%
X50865690Y-426007358D02*
X50865690Y-426277358D01*
X50865690Y-427737358D02*
X50865690Y-429277358D01*
X50865690Y-430737358D02*
X50865690Y-431007358D01*
X50865690Y-431007358D02*
X45865690Y-431007358D01*
X45865690Y-431007358D02*
X45865690Y-430737358D01*
X45865690Y-429277358D02*
X45865690Y-427737358D01*
X45865690Y-426277358D02*
X45865690Y-426007358D01*
X45865690Y-426007358D02*
X50865690Y-426007358D01*
X49865690Y-430307358D02*
X49865690Y-431007358D01*
X49865690Y-431007358D02*
X49165690Y-431007358D01*
X49165690Y-431007358D02*
X49865690Y-430307358D01*
X49865690Y-428507358D02*
G75*
G03*
X46865690Y-428507358I-1500000J0D01*
G01*
X46865690Y-428507358D02*
G75*
G03*
X49865690Y-428507358I1500000J0D01*
G01*
X45565690Y-426107358D02*
G75*
G03*
X45365690Y-426107358I-100000J0D01*
G01*
X45365690Y-426107358D02*
G75*
G03*
X45565690Y-426107358I100000J0D01*
G01*
%TO.C,LED18*%
X50865690Y-405569727D02*
X50865690Y-405839727D01*
X50865690Y-407299727D02*
X50865690Y-408839727D01*
X50865690Y-410299727D02*
X50865690Y-410569727D01*
X50865690Y-410569727D02*
X45865690Y-410569727D01*
X45865690Y-410569727D02*
X45865690Y-410299727D01*
X45865690Y-408839727D02*
X45865690Y-407299727D01*
X45865690Y-405839727D02*
X45865690Y-405569727D01*
X45865690Y-405569727D02*
X50865690Y-405569727D01*
X49865690Y-409869727D02*
X49865690Y-410569727D01*
X49865690Y-410569727D02*
X49165690Y-410569727D01*
X49165690Y-410569727D02*
X49865690Y-409869727D01*
X49865690Y-408069727D02*
G75*
G03*
X46865690Y-408069727I-1500000J0D01*
G01*
X46865690Y-408069727D02*
G75*
G03*
X49865690Y-408069727I1500000J0D01*
G01*
X45565690Y-405669727D02*
G75*
G03*
X45365690Y-405669727I-100000J0D01*
G01*
X45365690Y-405669727D02*
G75*
G03*
X45565690Y-405669727I100000J0D01*
G01*
%TO.C,LED17*%
X50865690Y-385132096D02*
X50865690Y-385402096D01*
X50865690Y-386862096D02*
X50865690Y-388402096D01*
X50865690Y-389862096D02*
X50865690Y-390132096D01*
X50865690Y-390132096D02*
X45865690Y-390132096D01*
X45865690Y-390132096D02*
X45865690Y-389862096D01*
X45865690Y-388402096D02*
X45865690Y-386862096D01*
X45865690Y-385402096D02*
X45865690Y-385132096D01*
X45865690Y-385132096D02*
X50865690Y-385132096D01*
X49865690Y-389432096D02*
X49865690Y-390132096D01*
X49865690Y-390132096D02*
X49165690Y-390132096D01*
X49165690Y-390132096D02*
X49865690Y-389432096D01*
X49865690Y-387632096D02*
G75*
G03*
X46865690Y-387632096I-1500000J0D01*
G01*
X46865690Y-387632096D02*
G75*
G03*
X49865690Y-387632096I1500000J0D01*
G01*
X45565690Y-385232096D02*
G75*
G03*
X45365690Y-385232096I-100000J0D01*
G01*
X45365690Y-385232096D02*
G75*
G03*
X45565690Y-385232096I100000J0D01*
G01*
%TO.C,LED16*%
X50865690Y-364694465D02*
X50865690Y-364964465D01*
X50865690Y-366424465D02*
X50865690Y-367964465D01*
X50865690Y-369424465D02*
X50865690Y-369694465D01*
X50865690Y-369694465D02*
X45865690Y-369694465D01*
X45865690Y-369694465D02*
X45865690Y-369424465D01*
X45865690Y-367964465D02*
X45865690Y-366424465D01*
X45865690Y-364964465D02*
X45865690Y-364694465D01*
X45865690Y-364694465D02*
X50865690Y-364694465D01*
X49865690Y-368994465D02*
X49865690Y-369694465D01*
X49865690Y-369694465D02*
X49165690Y-369694465D01*
X49165690Y-369694465D02*
X49865690Y-368994465D01*
X49865690Y-367194465D02*
G75*
G03*
X46865690Y-367194465I-1500000J0D01*
G01*
X46865690Y-367194465D02*
G75*
G03*
X49865690Y-367194465I1500000J0D01*
G01*
X45565690Y-364794465D02*
G75*
G03*
X45365690Y-364794465I-100000J0D01*
G01*
X45365690Y-364794465D02*
G75*
G03*
X45565690Y-364794465I100000J0D01*
G01*
%TO.C,LED15*%
X50865690Y-344256834D02*
X50865690Y-344526834D01*
X50865690Y-345986834D02*
X50865690Y-347526834D01*
X50865690Y-348986834D02*
X50865690Y-349256834D01*
X50865690Y-349256834D02*
X45865690Y-349256834D01*
X45865690Y-349256834D02*
X45865690Y-348986834D01*
X45865690Y-347526834D02*
X45865690Y-345986834D01*
X45865690Y-344526834D02*
X45865690Y-344256834D01*
X45865690Y-344256834D02*
X50865690Y-344256834D01*
X49865690Y-348556834D02*
X49865690Y-349256834D01*
X49865690Y-349256834D02*
X49165690Y-349256834D01*
X49165690Y-349256834D02*
X49865690Y-348556834D01*
X49865690Y-346756834D02*
G75*
G03*
X46865690Y-346756834I-1500000J0D01*
G01*
X46865690Y-346756834D02*
G75*
G03*
X49865690Y-346756834I1500000J0D01*
G01*
X45565690Y-344356834D02*
G75*
G03*
X45365690Y-344356834I-100000J0D01*
G01*
X45365690Y-344356834D02*
G75*
G03*
X45565690Y-344356834I100000J0D01*
G01*
%TO.C,LED14*%
X50865690Y-323819203D02*
X50865690Y-324089203D01*
X50865690Y-325549203D02*
X50865690Y-327089203D01*
X50865690Y-328549203D02*
X50865690Y-328819203D01*
X50865690Y-328819203D02*
X45865690Y-328819203D01*
X45865690Y-328819203D02*
X45865690Y-328549203D01*
X45865690Y-327089203D02*
X45865690Y-325549203D01*
X45865690Y-324089203D02*
X45865690Y-323819203D01*
X45865690Y-323819203D02*
X50865690Y-323819203D01*
X49865690Y-328119203D02*
X49865690Y-328819203D01*
X49865690Y-328819203D02*
X49165690Y-328819203D01*
X49165690Y-328819203D02*
X49865690Y-328119203D01*
X49865690Y-326319203D02*
G75*
G03*
X46865690Y-326319203I-1500000J0D01*
G01*
X46865690Y-326319203D02*
G75*
G03*
X49865690Y-326319203I1500000J0D01*
G01*
X45565690Y-323919203D02*
G75*
G03*
X45365690Y-323919203I-100000J0D01*
G01*
X45365690Y-323919203D02*
G75*
G03*
X45565690Y-323919203I100000J0D01*
G01*
%TO.C,LED13*%
X50865690Y-303381572D02*
X50865690Y-303651572D01*
X50865690Y-305111572D02*
X50865690Y-306651572D01*
X50865690Y-308111572D02*
X50865690Y-308381572D01*
X50865690Y-308381572D02*
X45865690Y-308381572D01*
X45865690Y-308381572D02*
X45865690Y-308111572D01*
X45865690Y-306651572D02*
X45865690Y-305111572D01*
X45865690Y-303651572D02*
X45865690Y-303381572D01*
X45865690Y-303381572D02*
X50865690Y-303381572D01*
X49865690Y-307681572D02*
X49865690Y-308381572D01*
X49865690Y-308381572D02*
X49165690Y-308381572D01*
X49165690Y-308381572D02*
X49865690Y-307681572D01*
X49865690Y-305881572D02*
G75*
G03*
X46865690Y-305881572I-1500000J0D01*
G01*
X46865690Y-305881572D02*
G75*
G03*
X49865690Y-305881572I1500000J0D01*
G01*
X45565690Y-303481572D02*
G75*
G03*
X45365690Y-303481572I-100000J0D01*
G01*
X45365690Y-303481572D02*
G75*
G03*
X45565690Y-303481572I100000J0D01*
G01*
%TO.C,LED12*%
X50865690Y-282943941D02*
X50865690Y-283213941D01*
X50865690Y-284673941D02*
X50865690Y-286213941D01*
X50865690Y-287673941D02*
X50865690Y-287943941D01*
X50865690Y-287943941D02*
X45865690Y-287943941D01*
X45865690Y-287943941D02*
X45865690Y-287673941D01*
X45865690Y-286213941D02*
X45865690Y-284673941D01*
X45865690Y-283213941D02*
X45865690Y-282943941D01*
X45865690Y-282943941D02*
X50865690Y-282943941D01*
X49865690Y-287243941D02*
X49865690Y-287943941D01*
X49865690Y-287943941D02*
X49165690Y-287943941D01*
X49165690Y-287943941D02*
X49865690Y-287243941D01*
X49865690Y-285443941D02*
G75*
G03*
X46865690Y-285443941I-1500000J0D01*
G01*
X46865690Y-285443941D02*
G75*
G03*
X49865690Y-285443941I1500000J0D01*
G01*
X45565690Y-283043941D02*
G75*
G03*
X45365690Y-283043941I-100000J0D01*
G01*
X45365690Y-283043941D02*
G75*
G03*
X45565690Y-283043941I100000J0D01*
G01*
%TO.C,LED11*%
X50865690Y-262506310D02*
X50865690Y-262776310D01*
X50865690Y-264236310D02*
X50865690Y-265776310D01*
X50865690Y-267236310D02*
X50865690Y-267506310D01*
X50865690Y-267506310D02*
X45865690Y-267506310D01*
X45865690Y-267506310D02*
X45865690Y-267236310D01*
X45865690Y-265776310D02*
X45865690Y-264236310D01*
X45865690Y-262776310D02*
X45865690Y-262506310D01*
X45865690Y-262506310D02*
X50865690Y-262506310D01*
X49865690Y-266806310D02*
X49865690Y-267506310D01*
X49865690Y-267506310D02*
X49165690Y-267506310D01*
X49165690Y-267506310D02*
X49865690Y-266806310D01*
X49865690Y-265006310D02*
G75*
G03*
X46865690Y-265006310I-1500000J0D01*
G01*
X46865690Y-265006310D02*
G75*
G03*
X49865690Y-265006310I1500000J0D01*
G01*
X45565690Y-262606310D02*
G75*
G03*
X45365690Y-262606310I-100000J0D01*
G01*
X45365690Y-262606310D02*
G75*
G03*
X45565690Y-262606310I100000J0D01*
G01*
%TO.C,LED10*%
X50865690Y-242068679D02*
X50865690Y-242338679D01*
X50865690Y-243798679D02*
X50865690Y-245338679D01*
X50865690Y-246798679D02*
X50865690Y-247068679D01*
X50865690Y-247068679D02*
X45865690Y-247068679D01*
X45865690Y-247068679D02*
X45865690Y-246798679D01*
X45865690Y-245338679D02*
X45865690Y-243798679D01*
X45865690Y-242338679D02*
X45865690Y-242068679D01*
X45865690Y-242068679D02*
X50865690Y-242068679D01*
X49865690Y-246368679D02*
X49865690Y-247068679D01*
X49865690Y-247068679D02*
X49165690Y-247068679D01*
X49165690Y-247068679D02*
X49865690Y-246368679D01*
X49865690Y-244568679D02*
G75*
G03*
X46865690Y-244568679I-1500000J0D01*
G01*
X46865690Y-244568679D02*
G75*
G03*
X49865690Y-244568679I1500000J0D01*
G01*
X45565690Y-242168679D02*
G75*
G03*
X45365690Y-242168679I-100000J0D01*
G01*
X45365690Y-242168679D02*
G75*
G03*
X45565690Y-242168679I100000J0D01*
G01*
%TO.C,LED9*%
X50865690Y-221631048D02*
X50865690Y-221901048D01*
X50865690Y-223361048D02*
X50865690Y-224901048D01*
X50865690Y-226361048D02*
X50865690Y-226631048D01*
X50865690Y-226631048D02*
X45865690Y-226631048D01*
X45865690Y-226631048D02*
X45865690Y-226361048D01*
X45865690Y-224901048D02*
X45865690Y-223361048D01*
X45865690Y-221901048D02*
X45865690Y-221631048D01*
X45865690Y-221631048D02*
X50865690Y-221631048D01*
X49865690Y-225931048D02*
X49865690Y-226631048D01*
X49865690Y-226631048D02*
X49165690Y-226631048D01*
X49165690Y-226631048D02*
X49865690Y-225931048D01*
X49865690Y-224131048D02*
G75*
G03*
X46865690Y-224131048I-1500000J0D01*
G01*
X46865690Y-224131048D02*
G75*
G03*
X49865690Y-224131048I1500000J0D01*
G01*
X45565690Y-221731048D02*
G75*
G03*
X45365690Y-221731048I-100000J0D01*
G01*
X45365690Y-221731048D02*
G75*
G03*
X45565690Y-221731048I100000J0D01*
G01*
%TO.C,LED8*%
X50865690Y-201193417D02*
X50865690Y-201463417D01*
X50865690Y-202923417D02*
X50865690Y-204463417D01*
X50865690Y-205923417D02*
X50865690Y-206193417D01*
X50865690Y-206193417D02*
X45865690Y-206193417D01*
X45865690Y-206193417D02*
X45865690Y-205923417D01*
X45865690Y-204463417D02*
X45865690Y-202923417D01*
X45865690Y-201463417D02*
X45865690Y-201193417D01*
X45865690Y-201193417D02*
X50865690Y-201193417D01*
X49865690Y-205493417D02*
X49865690Y-206193417D01*
X49865690Y-206193417D02*
X49165690Y-206193417D01*
X49165690Y-206193417D02*
X49865690Y-205493417D01*
X49865690Y-203693417D02*
G75*
G03*
X46865690Y-203693417I-1500000J0D01*
G01*
X46865690Y-203693417D02*
G75*
G03*
X49865690Y-203693417I1500000J0D01*
G01*
X45565690Y-201293417D02*
G75*
G03*
X45365690Y-201293417I-100000J0D01*
G01*
X45365690Y-201293417D02*
G75*
G03*
X45565690Y-201293417I100000J0D01*
G01*
%TO.C,LED7*%
X50865690Y-180755786D02*
X50865690Y-181025786D01*
X50865690Y-182485786D02*
X50865690Y-184025786D01*
X50865690Y-185485786D02*
X50865690Y-185755786D01*
X50865690Y-185755786D02*
X45865690Y-185755786D01*
X45865690Y-185755786D02*
X45865690Y-185485786D01*
X45865690Y-184025786D02*
X45865690Y-182485786D01*
X45865690Y-181025786D02*
X45865690Y-180755786D01*
X45865690Y-180755786D02*
X50865690Y-180755786D01*
X49865690Y-185055786D02*
X49865690Y-185755786D01*
X49865690Y-185755786D02*
X49165690Y-185755786D01*
X49165690Y-185755786D02*
X49865690Y-185055786D01*
X49865690Y-183255786D02*
G75*
G03*
X46865690Y-183255786I-1500000J0D01*
G01*
X46865690Y-183255786D02*
G75*
G03*
X49865690Y-183255786I1500000J0D01*
G01*
X45565690Y-180855786D02*
G75*
G03*
X45365690Y-180855786I-100000J0D01*
G01*
X45365690Y-180855786D02*
G75*
G03*
X45565690Y-180855786I100000J0D01*
G01*
%TO.C,LED6*%
X50865690Y-160318155D02*
X50865690Y-160588155D01*
X50865690Y-162048155D02*
X50865690Y-163588155D01*
X50865690Y-165048155D02*
X50865690Y-165318155D01*
X50865690Y-165318155D02*
X45865690Y-165318155D01*
X45865690Y-165318155D02*
X45865690Y-165048155D01*
X45865690Y-163588155D02*
X45865690Y-162048155D01*
X45865690Y-160588155D02*
X45865690Y-160318155D01*
X45865690Y-160318155D02*
X50865690Y-160318155D01*
X49865690Y-164618155D02*
X49865690Y-165318155D01*
X49865690Y-165318155D02*
X49165690Y-165318155D01*
X49165690Y-165318155D02*
X49865690Y-164618155D01*
X49865690Y-162818155D02*
G75*
G03*
X46865690Y-162818155I-1500000J0D01*
G01*
X46865690Y-162818155D02*
G75*
G03*
X49865690Y-162818155I1500000J0D01*
G01*
X45565690Y-160418155D02*
G75*
G03*
X45365690Y-160418155I-100000J0D01*
G01*
X45365690Y-160418155D02*
G75*
G03*
X45565690Y-160418155I100000J0D01*
G01*
%TO.C,LED5*%
X50865690Y-139880524D02*
X50865690Y-140150524D01*
X50865690Y-141610524D02*
X50865690Y-143150524D01*
X50865690Y-144610524D02*
X50865690Y-144880524D01*
X50865690Y-144880524D02*
X45865690Y-144880524D01*
X45865690Y-144880524D02*
X45865690Y-144610524D01*
X45865690Y-143150524D02*
X45865690Y-141610524D01*
X45865690Y-140150524D02*
X45865690Y-139880524D01*
X45865690Y-139880524D02*
X50865690Y-139880524D01*
X49865690Y-144180524D02*
X49865690Y-144880524D01*
X49865690Y-144880524D02*
X49165690Y-144880524D01*
X49165690Y-144880524D02*
X49865690Y-144180524D01*
X49865690Y-142380524D02*
G75*
G03*
X46865690Y-142380524I-1500000J0D01*
G01*
X46865690Y-142380524D02*
G75*
G03*
X49865690Y-142380524I1500000J0D01*
G01*
X45565690Y-139980524D02*
G75*
G03*
X45365690Y-139980524I-100000J0D01*
G01*
X45365690Y-139980524D02*
G75*
G03*
X45565690Y-139980524I100000J0D01*
G01*
%TO.C,LED4*%
X50865690Y-119442893D02*
X50865690Y-119712893D01*
X50865690Y-121172893D02*
X50865690Y-122712893D01*
X50865690Y-124172893D02*
X50865690Y-124442893D01*
X50865690Y-124442893D02*
X45865690Y-124442893D01*
X45865690Y-124442893D02*
X45865690Y-124172893D01*
X45865690Y-122712893D02*
X45865690Y-121172893D01*
X45865690Y-119712893D02*
X45865690Y-119442893D01*
X45865690Y-119442893D02*
X50865690Y-119442893D01*
X49865690Y-123742893D02*
X49865690Y-124442893D01*
X49865690Y-124442893D02*
X49165690Y-124442893D01*
X49165690Y-124442893D02*
X49865690Y-123742893D01*
X49865690Y-121942893D02*
G75*
G03*
X46865690Y-121942893I-1500000J0D01*
G01*
X46865690Y-121942893D02*
G75*
G03*
X49865690Y-121942893I1500000J0D01*
G01*
X45565690Y-119542893D02*
G75*
G03*
X45365690Y-119542893I-100000J0D01*
G01*
X45365690Y-119542893D02*
G75*
G03*
X45565690Y-119542893I100000J0D01*
G01*
%TO.C,LED3*%
X50865690Y-99005262D02*
X50865690Y-99275262D01*
X50865690Y-100735262D02*
X50865690Y-102275262D01*
X50865690Y-103735262D02*
X50865690Y-104005262D01*
X50865690Y-104005262D02*
X45865690Y-104005262D01*
X45865690Y-104005262D02*
X45865690Y-103735262D01*
X45865690Y-102275262D02*
X45865690Y-100735262D01*
X45865690Y-99275262D02*
X45865690Y-99005262D01*
X45865690Y-99005262D02*
X50865690Y-99005262D01*
X49865690Y-103305262D02*
X49865690Y-104005262D01*
X49865690Y-104005262D02*
X49165690Y-104005262D01*
X49165690Y-104005262D02*
X49865690Y-103305262D01*
X49865690Y-101505262D02*
G75*
G03*
X46865690Y-101505262I-1500000J0D01*
G01*
X46865690Y-101505262D02*
G75*
G03*
X49865690Y-101505262I1500000J0D01*
G01*
X45565690Y-99105262D02*
G75*
G03*
X45365690Y-99105262I-100000J0D01*
G01*
X45365690Y-99105262D02*
G75*
G03*
X45565690Y-99105262I100000J0D01*
G01*
%TO.C,LED2*%
X50865690Y-78567631D02*
X50865690Y-78837631D01*
X50865690Y-80297631D02*
X50865690Y-81837631D01*
X50865690Y-83297631D02*
X50865690Y-83567631D01*
X50865690Y-83567631D02*
X45865690Y-83567631D01*
X45865690Y-83567631D02*
X45865690Y-83297631D01*
X45865690Y-81837631D02*
X45865690Y-80297631D01*
X45865690Y-78837631D02*
X45865690Y-78567631D01*
X45865690Y-78567631D02*
X50865690Y-78567631D01*
X49865690Y-82867631D02*
X49865690Y-83567631D01*
X49865690Y-83567631D02*
X49165690Y-83567631D01*
X49165690Y-83567631D02*
X49865690Y-82867631D01*
X49865690Y-81067631D02*
G75*
G03*
X46865690Y-81067631I-1500000J0D01*
G01*
X46865690Y-81067631D02*
G75*
G03*
X49865690Y-81067631I1500000J0D01*
G01*
X45565690Y-78667631D02*
G75*
G03*
X45365690Y-78667631I-100000J0D01*
G01*
X45365690Y-78667631D02*
G75*
G03*
X45565690Y-78667631I100000J0D01*
G01*
D12*
%TO.C,R1*%
X50776200Y-453693264D02*
X50776200Y-453239136D01*
X52246200Y-453693264D02*
X52246200Y-453239136D01*
%TO.C,U1*%
X45821600Y-51400400D02*
X53501600Y-51400400D01*
X44551600Y-54060400D02*
X43221600Y-54060400D01*
X53501600Y-54060400D02*
X53501600Y-51400400D01*
X45821600Y-54060400D02*
X45821600Y-51400400D01*
X43221600Y-54060400D02*
X43221600Y-52730400D01*
X45821600Y-54060400D02*
X53501600Y-54060400D01*
%TD*%
M02*
