%TF.GenerationSoftware,KiCad,Pcbnew,7.0.10*%
%TF.CreationDate,2024-02-09T21:47:44+00:00*%
%TF.ProjectId,led-strip,6c65642d-7374-4726-9970-2e6b69636164,rev?*%
%TF.SameCoordinates,Original*%
%TF.FileFunction,Paste,Top*%
%TF.FilePolarity,Positive*%
%FSLAX46Y46*%
G04 Gerber Fmt 4.6, Leading zero omitted, Abs format (unit mm)*
G04 Created by KiCad (PCBNEW 7.0.10) date 2024-02-09 21:47:44*
%MOMM*%
%LPD*%
G01*
G04 APERTURE LIST*
G04 Aperture macros list*
%AMRoundRect*
0 Rectangle with rounded corners*
0 $1 Rounding radius*
0 $2 $3 $4 $5 $6 $7 $8 $9 X,Y pos of 4 corners*
0 Add a 4 corners polygon primitive as box body*
4,1,4,$2,$3,$4,$5,$6,$7,$8,$9,$2,$3,0*
0 Add four circle primitives for the rounded corners*
1,1,$1+$1,$2,$3*
1,1,$1+$1,$4,$5*
1,1,$1+$1,$6,$7*
1,1,$1+$1,$8,$9*
0 Add four rect primitives between the rounded corners*
20,1,$1+$1,$2,$3,$4,$5,0*
20,1,$1+$1,$4,$5,$6,$7,0*
20,1,$1+$1,$6,$7,$8,$9,0*
20,1,$1+$1,$8,$9,$2,$3,0*%
G04 Aperture macros list end*
%ADD10RoundRect,0.140000X-0.140000X-0.170000X0.140000X-0.170000X0.140000X0.170000X-0.140000X0.170000X0*%
%ADD11R,1.800000X1.000000*%
%ADD12RoundRect,0.250000X0.450000X-0.262500X0.450000X0.262500X-0.450000X0.262500X-0.450000X-0.262500X0*%
G04 APERTURE END LIST*
D10*
%TO.C,CLED2*%
X47885690Y-85969631D03*
X48845690Y-85969631D03*
%TD*%
%TO.C,CLED20*%
X47885690Y-453847000D03*
X48845690Y-453847000D03*
%TD*%
%TO.C,CLED19*%
X47885690Y-433409358D03*
X48845690Y-433409358D03*
%TD*%
%TO.C,CLED18*%
X47885690Y-412971727D03*
X48845690Y-412971727D03*
%TD*%
%TO.C,CLED17*%
X47885690Y-392534096D03*
X48845690Y-392534096D03*
%TD*%
%TO.C,CLED16*%
X47885690Y-372096465D03*
X48845690Y-372096465D03*
%TD*%
%TO.C,CLED15*%
X47885690Y-351658834D03*
X48845690Y-351658834D03*
%TD*%
%TO.C,CLED14*%
X47885690Y-331221203D03*
X48845690Y-331221203D03*
%TD*%
%TO.C,CLED13*%
X47885690Y-310783572D03*
X48845690Y-310783572D03*
%TD*%
%TO.C,CLED12*%
X47885690Y-290345941D03*
X48845690Y-290345941D03*
%TD*%
%TO.C,CLED11*%
X47885690Y-269908310D03*
X48845690Y-269908310D03*
%TD*%
%TO.C,CLED10*%
X47885690Y-249470679D03*
X48845690Y-249470679D03*
%TD*%
%TO.C,CLED9*%
X47885690Y-229033048D03*
X48845690Y-229033048D03*
%TD*%
%TO.C,CLED8*%
X47885690Y-208595417D03*
X48845690Y-208595417D03*
%TD*%
%TO.C,CLED7*%
X47885690Y-188157786D03*
X48845690Y-188157786D03*
%TD*%
%TO.C,CLED6*%
X47885690Y-167720155D03*
X48845690Y-167720155D03*
%TD*%
%TO.C,CLED5*%
X47885690Y-147282524D03*
X48845690Y-147282524D03*
%TD*%
%TO.C,CLED4*%
X47885690Y-126844893D03*
X48845690Y-126844893D03*
%TD*%
%TO.C,CLED3*%
X47885690Y-106407262D03*
X48845690Y-106407262D03*
%TD*%
%TO.C,CLED1*%
X47885690Y-65532000D03*
X48845690Y-65532000D03*
%TD*%
D11*
%TO.C,LED20*%
X50865690Y-450545000D03*
X50865690Y-447345000D03*
X45865690Y-447345000D03*
X45865690Y-450545000D03*
%TD*%
%TO.C,LED1*%
X50865690Y-62230000D03*
X50865690Y-59030000D03*
X45865690Y-59030000D03*
X45865690Y-62230000D03*
%TD*%
%TO.C,LED19*%
X50865690Y-430107358D03*
X50865690Y-426907358D03*
X45865690Y-426907358D03*
X45865690Y-430107358D03*
%TD*%
%TO.C,LED18*%
X50865690Y-409669727D03*
X50865690Y-406469727D03*
X45865690Y-406469727D03*
X45865690Y-409669727D03*
%TD*%
%TO.C,LED17*%
X50865690Y-389232096D03*
X50865690Y-386032096D03*
X45865690Y-386032096D03*
X45865690Y-389232096D03*
%TD*%
%TO.C,LED16*%
X50865690Y-368794465D03*
X50865690Y-365594465D03*
X45865690Y-365594465D03*
X45865690Y-368794465D03*
%TD*%
%TO.C,LED15*%
X50865690Y-348356834D03*
X50865690Y-345156834D03*
X45865690Y-345156834D03*
X45865690Y-348356834D03*
%TD*%
%TO.C,LED14*%
X50865690Y-327919203D03*
X50865690Y-324719203D03*
X45865690Y-324719203D03*
X45865690Y-327919203D03*
%TD*%
%TO.C,LED13*%
X50865690Y-307481572D03*
X50865690Y-304281572D03*
X45865690Y-304281572D03*
X45865690Y-307481572D03*
%TD*%
%TO.C,LED12*%
X50865690Y-287043941D03*
X50865690Y-283843941D03*
X45865690Y-283843941D03*
X45865690Y-287043941D03*
%TD*%
%TO.C,LED11*%
X50865690Y-266606310D03*
X50865690Y-263406310D03*
X45865690Y-263406310D03*
X45865690Y-266606310D03*
%TD*%
%TO.C,LED10*%
X50865690Y-246168679D03*
X50865690Y-242968679D03*
X45865690Y-242968679D03*
X45865690Y-246168679D03*
%TD*%
%TO.C,LED9*%
X50865690Y-225731048D03*
X50865690Y-222531048D03*
X45865690Y-222531048D03*
X45865690Y-225731048D03*
%TD*%
%TO.C,LED8*%
X50865690Y-205293417D03*
X50865690Y-202093417D03*
X45865690Y-202093417D03*
X45865690Y-205293417D03*
%TD*%
%TO.C,LED7*%
X50865690Y-184855786D03*
X50865690Y-181655786D03*
X45865690Y-181655786D03*
X45865690Y-184855786D03*
%TD*%
%TO.C,LED6*%
X50865690Y-164418155D03*
X50865690Y-161218155D03*
X45865690Y-161218155D03*
X45865690Y-164418155D03*
%TD*%
%TO.C,LED5*%
X50865690Y-143980524D03*
X50865690Y-140780524D03*
X45865690Y-140780524D03*
X45865690Y-143980524D03*
%TD*%
%TO.C,LED4*%
X50865690Y-123542893D03*
X50865690Y-120342893D03*
X45865690Y-120342893D03*
X45865690Y-123542893D03*
%TD*%
%TO.C,LED3*%
X50865690Y-103105262D03*
X50865690Y-99905262D03*
X45865690Y-99905262D03*
X45865690Y-103105262D03*
%TD*%
%TO.C,LED2*%
X50865690Y-82667631D03*
X50865690Y-79467631D03*
X45865690Y-79467631D03*
X45865690Y-82667631D03*
%TD*%
D12*
%TO.C,R1*%
X51511200Y-454378700D03*
X51511200Y-452553700D03*
%TD*%
M02*
