%TF.GenerationSoftware,KiCad,Pcbnew,7.0.10*%
%TF.CreationDate,2024-02-09T21:47:58+00:00*%
%TF.ProjectId,led-strip,6c65642d-7374-4726-9970-2e6b69636164,rev?*%
%TF.SameCoordinates,Original*%
%TF.FileFunction,Drillmap*%
%TF.FilePolarity,Positive*%
%FSLAX45Y45*%
G04 Gerber Fmt 4.5, Leading zero omitted, Abs format (unit mm)*
G04 Created by KiCad (PCBNEW 7.0.10) date 2024-02-09 21:47:58*
%MOMM*%
%LPD*%
G01*
G04 APERTURE LIST*
%ADD10C,0.100000*%
%ADD11C,0.200000*%
G04 APERTURE END LIST*
D10*
X4318000Y-5006340D02*
X5334000Y-5006340D01*
X5334000Y-45974000D01*
X4318000Y-45974000D01*
X4318000Y-5006340D01*
D11*
D10*
X4400080Y-45662380D02*
X4500080Y-45762380D01*
X4500080Y-45662380D02*
X4400080Y-45762380D01*
X4405160Y-5223040D02*
X4505160Y-5323040D01*
X4505160Y-5223040D02*
X4405160Y-5323040D01*
X4654080Y-45662380D02*
X4754080Y-45762380D01*
X4754080Y-45662380D02*
X4654080Y-45762380D01*
X4659160Y-5223040D02*
X4759160Y-5323040D01*
X4759160Y-5223040D02*
X4659160Y-5323040D01*
X4908080Y-45662380D02*
X5008080Y-45762380D01*
X5008080Y-45662380D02*
X4908080Y-45762380D01*
X4913160Y-5223040D02*
X5013160Y-5323040D01*
X5013160Y-5223040D02*
X4913160Y-5323040D01*
X5162080Y-45662380D02*
X5262080Y-45762380D01*
X5262080Y-45662380D02*
X5162080Y-45762380D01*
X5167160Y-5223040D02*
X5267160Y-5323040D01*
X5267160Y-5223040D02*
X5167160Y-5323040D01*
D11*
X4573777Y-46290484D02*
X4573777Y-46090484D01*
X4573777Y-46090484D02*
X4621396Y-46090484D01*
X4621396Y-46090484D02*
X4649967Y-46100008D01*
X4649967Y-46100008D02*
X4669015Y-46119055D01*
X4669015Y-46119055D02*
X4678539Y-46138103D01*
X4678539Y-46138103D02*
X4688063Y-46176198D01*
X4688063Y-46176198D02*
X4688063Y-46204769D01*
X4688063Y-46204769D02*
X4678539Y-46242865D01*
X4678539Y-46242865D02*
X4669015Y-46261912D01*
X4669015Y-46261912D02*
X4649967Y-46280960D01*
X4649967Y-46280960D02*
X4621396Y-46290484D01*
X4621396Y-46290484D02*
X4573777Y-46290484D01*
X4773777Y-46290484D02*
X4773777Y-46157150D01*
X4773777Y-46195246D02*
X4783301Y-46176198D01*
X4783301Y-46176198D02*
X4792824Y-46166674D01*
X4792824Y-46166674D02*
X4811872Y-46157150D01*
X4811872Y-46157150D02*
X4830920Y-46157150D01*
X4897586Y-46290484D02*
X4897586Y-46157150D01*
X4897586Y-46090484D02*
X4888063Y-46100008D01*
X4888063Y-46100008D02*
X4897586Y-46109531D01*
X4897586Y-46109531D02*
X4907110Y-46100008D01*
X4907110Y-46100008D02*
X4897586Y-46090484D01*
X4897586Y-46090484D02*
X4897586Y-46109531D01*
X5021396Y-46290484D02*
X5002348Y-46280960D01*
X5002348Y-46280960D02*
X4992824Y-46261912D01*
X4992824Y-46261912D02*
X4992824Y-46090484D01*
X5126158Y-46290484D02*
X5107110Y-46280960D01*
X5107110Y-46280960D02*
X5097586Y-46261912D01*
X5097586Y-46261912D02*
X5097586Y-46090484D01*
X5354729Y-46290484D02*
X5354729Y-46090484D01*
X5354729Y-46090484D02*
X5421396Y-46233341D01*
X5421396Y-46233341D02*
X5488063Y-46090484D01*
X5488063Y-46090484D02*
X5488063Y-46290484D01*
X5669015Y-46290484D02*
X5669015Y-46185722D01*
X5669015Y-46185722D02*
X5659491Y-46166674D01*
X5659491Y-46166674D02*
X5640443Y-46157150D01*
X5640443Y-46157150D02*
X5602348Y-46157150D01*
X5602348Y-46157150D02*
X5583301Y-46166674D01*
X5669015Y-46280960D02*
X5649967Y-46290484D01*
X5649967Y-46290484D02*
X5602348Y-46290484D01*
X5602348Y-46290484D02*
X5583301Y-46280960D01*
X5583301Y-46280960D02*
X5573777Y-46261912D01*
X5573777Y-46261912D02*
X5573777Y-46242865D01*
X5573777Y-46242865D02*
X5583301Y-46223817D01*
X5583301Y-46223817D02*
X5602348Y-46214293D01*
X5602348Y-46214293D02*
X5649967Y-46214293D01*
X5649967Y-46214293D02*
X5669015Y-46204769D01*
X5764253Y-46157150D02*
X5764253Y-46357150D01*
X5764253Y-46166674D02*
X5783301Y-46157150D01*
X5783301Y-46157150D02*
X5821396Y-46157150D01*
X5821396Y-46157150D02*
X5840443Y-46166674D01*
X5840443Y-46166674D02*
X5849967Y-46176198D01*
X5849967Y-46176198D02*
X5859491Y-46195246D01*
X5859491Y-46195246D02*
X5859491Y-46252388D01*
X5859491Y-46252388D02*
X5849967Y-46271436D01*
X5849967Y-46271436D02*
X5840443Y-46280960D01*
X5840443Y-46280960D02*
X5821396Y-46290484D01*
X5821396Y-46290484D02*
X5783301Y-46290484D01*
X5783301Y-46290484D02*
X5764253Y-46280960D01*
X5945205Y-46271436D02*
X5954729Y-46280960D01*
X5954729Y-46280960D02*
X5945205Y-46290484D01*
X5945205Y-46290484D02*
X5935682Y-46280960D01*
X5935682Y-46280960D02*
X5945205Y-46271436D01*
X5945205Y-46271436D02*
X5945205Y-46290484D01*
X5945205Y-46166674D02*
X5954729Y-46176198D01*
X5954729Y-46176198D02*
X5945205Y-46185722D01*
X5945205Y-46185722D02*
X5935682Y-46176198D01*
X5935682Y-46176198D02*
X5945205Y-46166674D01*
X5945205Y-46166674D02*
X5945205Y-46185722D01*
D10*
X4213000Y-46569000D02*
X4313000Y-46669000D01*
X4313000Y-46569000D02*
X4213000Y-46669000D01*
D11*
X4678539Y-46710484D02*
X4564253Y-46710484D01*
X4621396Y-46710484D02*
X4621396Y-46510484D01*
X4621396Y-46510484D02*
X4602348Y-46539055D01*
X4602348Y-46539055D02*
X4583301Y-46558103D01*
X4583301Y-46558103D02*
X4564253Y-46567627D01*
X4764253Y-46691436D02*
X4773777Y-46700960D01*
X4773777Y-46700960D02*
X4764253Y-46710484D01*
X4764253Y-46710484D02*
X4754729Y-46700960D01*
X4754729Y-46700960D02*
X4764253Y-46691436D01*
X4764253Y-46691436D02*
X4764253Y-46710484D01*
X4897586Y-46510484D02*
X4916634Y-46510484D01*
X4916634Y-46510484D02*
X4935682Y-46520008D01*
X4935682Y-46520008D02*
X4945205Y-46529531D01*
X4945205Y-46529531D02*
X4954729Y-46548579D01*
X4954729Y-46548579D02*
X4964253Y-46586674D01*
X4964253Y-46586674D02*
X4964253Y-46634293D01*
X4964253Y-46634293D02*
X4954729Y-46672388D01*
X4954729Y-46672388D02*
X4945205Y-46691436D01*
X4945205Y-46691436D02*
X4935682Y-46700960D01*
X4935682Y-46700960D02*
X4916634Y-46710484D01*
X4916634Y-46710484D02*
X4897586Y-46710484D01*
X4897586Y-46710484D02*
X4878539Y-46700960D01*
X4878539Y-46700960D02*
X4869015Y-46691436D01*
X4869015Y-46691436D02*
X4859491Y-46672388D01*
X4859491Y-46672388D02*
X4849967Y-46634293D01*
X4849967Y-46634293D02*
X4849967Y-46586674D01*
X4849967Y-46586674D02*
X4859491Y-46548579D01*
X4859491Y-46548579D02*
X4869015Y-46529531D01*
X4869015Y-46529531D02*
X4878539Y-46520008D01*
X4878539Y-46520008D02*
X4897586Y-46510484D01*
X5088063Y-46510484D02*
X5107110Y-46510484D01*
X5107110Y-46510484D02*
X5126158Y-46520008D01*
X5126158Y-46520008D02*
X5135682Y-46529531D01*
X5135682Y-46529531D02*
X5145205Y-46548579D01*
X5145205Y-46548579D02*
X5154729Y-46586674D01*
X5154729Y-46586674D02*
X5154729Y-46634293D01*
X5154729Y-46634293D02*
X5145205Y-46672388D01*
X5145205Y-46672388D02*
X5135682Y-46691436D01*
X5135682Y-46691436D02*
X5126158Y-46700960D01*
X5126158Y-46700960D02*
X5107110Y-46710484D01*
X5107110Y-46710484D02*
X5088063Y-46710484D01*
X5088063Y-46710484D02*
X5069015Y-46700960D01*
X5069015Y-46700960D02*
X5059491Y-46691436D01*
X5059491Y-46691436D02*
X5049967Y-46672388D01*
X5049967Y-46672388D02*
X5040444Y-46634293D01*
X5040444Y-46634293D02*
X5040444Y-46586674D01*
X5040444Y-46586674D02*
X5049967Y-46548579D01*
X5049967Y-46548579D02*
X5059491Y-46529531D01*
X5059491Y-46529531D02*
X5069015Y-46520008D01*
X5069015Y-46520008D02*
X5088063Y-46510484D01*
X5278539Y-46510484D02*
X5297586Y-46510484D01*
X5297586Y-46510484D02*
X5316634Y-46520008D01*
X5316634Y-46520008D02*
X5326158Y-46529531D01*
X5326158Y-46529531D02*
X5335682Y-46548579D01*
X5335682Y-46548579D02*
X5345205Y-46586674D01*
X5345205Y-46586674D02*
X5345205Y-46634293D01*
X5345205Y-46634293D02*
X5335682Y-46672388D01*
X5335682Y-46672388D02*
X5326158Y-46691436D01*
X5326158Y-46691436D02*
X5316634Y-46700960D01*
X5316634Y-46700960D02*
X5297586Y-46710484D01*
X5297586Y-46710484D02*
X5278539Y-46710484D01*
X5278539Y-46710484D02*
X5259491Y-46700960D01*
X5259491Y-46700960D02*
X5249967Y-46691436D01*
X5249967Y-46691436D02*
X5240444Y-46672388D01*
X5240444Y-46672388D02*
X5230920Y-46634293D01*
X5230920Y-46634293D02*
X5230920Y-46586674D01*
X5230920Y-46586674D02*
X5240444Y-46548579D01*
X5240444Y-46548579D02*
X5249967Y-46529531D01*
X5249967Y-46529531D02*
X5259491Y-46520008D01*
X5259491Y-46520008D02*
X5278539Y-46510484D01*
X5430920Y-46710484D02*
X5430920Y-46577150D01*
X5430920Y-46596198D02*
X5440444Y-46586674D01*
X5440444Y-46586674D02*
X5459491Y-46577150D01*
X5459491Y-46577150D02*
X5488063Y-46577150D01*
X5488063Y-46577150D02*
X5507110Y-46586674D01*
X5507110Y-46586674D02*
X5516634Y-46605722D01*
X5516634Y-46605722D02*
X5516634Y-46710484D01*
X5516634Y-46605722D02*
X5526158Y-46586674D01*
X5526158Y-46586674D02*
X5545205Y-46577150D01*
X5545205Y-46577150D02*
X5573777Y-46577150D01*
X5573777Y-46577150D02*
X5592824Y-46586674D01*
X5592824Y-46586674D02*
X5602348Y-46605722D01*
X5602348Y-46605722D02*
X5602348Y-46710484D01*
X5697586Y-46710484D02*
X5697586Y-46577150D01*
X5697586Y-46596198D02*
X5707110Y-46586674D01*
X5707110Y-46586674D02*
X5726158Y-46577150D01*
X5726158Y-46577150D02*
X5754729Y-46577150D01*
X5754729Y-46577150D02*
X5773777Y-46586674D01*
X5773777Y-46586674D02*
X5783301Y-46605722D01*
X5783301Y-46605722D02*
X5783301Y-46710484D01*
X5783301Y-46605722D02*
X5792824Y-46586674D01*
X5792824Y-46586674D02*
X5811872Y-46577150D01*
X5811872Y-46577150D02*
X5840443Y-46577150D01*
X5840443Y-46577150D02*
X5859491Y-46586674D01*
X5859491Y-46586674D02*
X5869015Y-46605722D01*
X5869015Y-46605722D02*
X5869015Y-46710484D01*
X6259491Y-46500960D02*
X6088063Y-46758103D01*
X6516634Y-46510484D02*
X6535682Y-46510484D01*
X6535682Y-46510484D02*
X6554729Y-46520008D01*
X6554729Y-46520008D02*
X6564253Y-46529531D01*
X6564253Y-46529531D02*
X6573777Y-46548579D01*
X6573777Y-46548579D02*
X6583301Y-46586674D01*
X6583301Y-46586674D02*
X6583301Y-46634293D01*
X6583301Y-46634293D02*
X6573777Y-46672388D01*
X6573777Y-46672388D02*
X6564253Y-46691436D01*
X6564253Y-46691436D02*
X6554729Y-46700960D01*
X6554729Y-46700960D02*
X6535682Y-46710484D01*
X6535682Y-46710484D02*
X6516634Y-46710484D01*
X6516634Y-46710484D02*
X6497586Y-46700960D01*
X6497586Y-46700960D02*
X6488063Y-46691436D01*
X6488063Y-46691436D02*
X6478539Y-46672388D01*
X6478539Y-46672388D02*
X6469015Y-46634293D01*
X6469015Y-46634293D02*
X6469015Y-46586674D01*
X6469015Y-46586674D02*
X6478539Y-46548579D01*
X6478539Y-46548579D02*
X6488063Y-46529531D01*
X6488063Y-46529531D02*
X6497586Y-46520008D01*
X6497586Y-46520008D02*
X6516634Y-46510484D01*
X6669015Y-46691436D02*
X6678539Y-46700960D01*
X6678539Y-46700960D02*
X6669015Y-46710484D01*
X6669015Y-46710484D02*
X6659491Y-46700960D01*
X6659491Y-46700960D02*
X6669015Y-46691436D01*
X6669015Y-46691436D02*
X6669015Y-46710484D01*
X6802348Y-46510484D02*
X6821396Y-46510484D01*
X6821396Y-46510484D02*
X6840444Y-46520008D01*
X6840444Y-46520008D02*
X6849967Y-46529531D01*
X6849967Y-46529531D02*
X6859491Y-46548579D01*
X6859491Y-46548579D02*
X6869015Y-46586674D01*
X6869015Y-46586674D02*
X6869015Y-46634293D01*
X6869015Y-46634293D02*
X6859491Y-46672388D01*
X6859491Y-46672388D02*
X6849967Y-46691436D01*
X6849967Y-46691436D02*
X6840444Y-46700960D01*
X6840444Y-46700960D02*
X6821396Y-46710484D01*
X6821396Y-46710484D02*
X6802348Y-46710484D01*
X6802348Y-46710484D02*
X6783301Y-46700960D01*
X6783301Y-46700960D02*
X6773777Y-46691436D01*
X6773777Y-46691436D02*
X6764253Y-46672388D01*
X6764253Y-46672388D02*
X6754729Y-46634293D01*
X6754729Y-46634293D02*
X6754729Y-46586674D01*
X6754729Y-46586674D02*
X6764253Y-46548579D01*
X6764253Y-46548579D02*
X6773777Y-46529531D01*
X6773777Y-46529531D02*
X6783301Y-46520008D01*
X6783301Y-46520008D02*
X6802348Y-46510484D01*
X6935682Y-46510484D02*
X7059491Y-46510484D01*
X7059491Y-46510484D02*
X6992825Y-46586674D01*
X6992825Y-46586674D02*
X7021396Y-46586674D01*
X7021396Y-46586674D02*
X7040444Y-46596198D01*
X7040444Y-46596198D02*
X7049967Y-46605722D01*
X7049967Y-46605722D02*
X7059491Y-46624769D01*
X7059491Y-46624769D02*
X7059491Y-46672388D01*
X7059491Y-46672388D02*
X7049967Y-46691436D01*
X7049967Y-46691436D02*
X7040444Y-46700960D01*
X7040444Y-46700960D02*
X7021396Y-46710484D01*
X7021396Y-46710484D02*
X6964253Y-46710484D01*
X6964253Y-46710484D02*
X6945206Y-46700960D01*
X6945206Y-46700960D02*
X6935682Y-46691436D01*
X7154729Y-46710484D02*
X7192825Y-46710484D01*
X7192825Y-46710484D02*
X7211872Y-46700960D01*
X7211872Y-46700960D02*
X7221396Y-46691436D01*
X7221396Y-46691436D02*
X7240444Y-46662865D01*
X7240444Y-46662865D02*
X7249967Y-46624769D01*
X7249967Y-46624769D02*
X7249967Y-46548579D01*
X7249967Y-46548579D02*
X7240444Y-46529531D01*
X7240444Y-46529531D02*
X7230920Y-46520008D01*
X7230920Y-46520008D02*
X7211872Y-46510484D01*
X7211872Y-46510484D02*
X7173777Y-46510484D01*
X7173777Y-46510484D02*
X7154729Y-46520008D01*
X7154729Y-46520008D02*
X7145206Y-46529531D01*
X7145206Y-46529531D02*
X7135682Y-46548579D01*
X7135682Y-46548579D02*
X7135682Y-46596198D01*
X7135682Y-46596198D02*
X7145206Y-46615246D01*
X7145206Y-46615246D02*
X7154729Y-46624769D01*
X7154729Y-46624769D02*
X7173777Y-46634293D01*
X7173777Y-46634293D02*
X7211872Y-46634293D01*
X7211872Y-46634293D02*
X7230920Y-46624769D01*
X7230920Y-46624769D02*
X7240444Y-46615246D01*
X7240444Y-46615246D02*
X7249967Y-46596198D01*
X7421396Y-46577150D02*
X7421396Y-46710484D01*
X7373777Y-46500960D02*
X7326158Y-46643817D01*
X7326158Y-46643817D02*
X7449967Y-46643817D01*
X7516634Y-46510484D02*
X7516634Y-46548579D01*
X7592825Y-46510484D02*
X7592825Y-46548579D01*
X7888063Y-46786674D02*
X7878539Y-46777150D01*
X7878539Y-46777150D02*
X7859491Y-46748579D01*
X7859491Y-46748579D02*
X7849968Y-46729531D01*
X7849968Y-46729531D02*
X7840444Y-46700960D01*
X7840444Y-46700960D02*
X7830920Y-46653341D01*
X7830920Y-46653341D02*
X7830920Y-46615246D01*
X7830920Y-46615246D02*
X7840444Y-46567627D01*
X7840444Y-46567627D02*
X7849968Y-46539055D01*
X7849968Y-46539055D02*
X7859491Y-46520008D01*
X7859491Y-46520008D02*
X7878539Y-46491436D01*
X7878539Y-46491436D02*
X7888063Y-46481912D01*
X7992825Y-46596198D02*
X7973777Y-46586674D01*
X7973777Y-46586674D02*
X7964253Y-46577150D01*
X7964253Y-46577150D02*
X7954729Y-46558103D01*
X7954729Y-46558103D02*
X7954729Y-46548579D01*
X7954729Y-46548579D02*
X7964253Y-46529531D01*
X7964253Y-46529531D02*
X7973777Y-46520008D01*
X7973777Y-46520008D02*
X7992825Y-46510484D01*
X7992825Y-46510484D02*
X8030920Y-46510484D01*
X8030920Y-46510484D02*
X8049968Y-46520008D01*
X8049968Y-46520008D02*
X8059491Y-46529531D01*
X8059491Y-46529531D02*
X8069015Y-46548579D01*
X8069015Y-46548579D02*
X8069015Y-46558103D01*
X8069015Y-46558103D02*
X8059491Y-46577150D01*
X8059491Y-46577150D02*
X8049968Y-46586674D01*
X8049968Y-46586674D02*
X8030920Y-46596198D01*
X8030920Y-46596198D02*
X7992825Y-46596198D01*
X7992825Y-46596198D02*
X7973777Y-46605722D01*
X7973777Y-46605722D02*
X7964253Y-46615246D01*
X7964253Y-46615246D02*
X7954729Y-46634293D01*
X7954729Y-46634293D02*
X7954729Y-46672388D01*
X7954729Y-46672388D02*
X7964253Y-46691436D01*
X7964253Y-46691436D02*
X7973777Y-46700960D01*
X7973777Y-46700960D02*
X7992825Y-46710484D01*
X7992825Y-46710484D02*
X8030920Y-46710484D01*
X8030920Y-46710484D02*
X8049968Y-46700960D01*
X8049968Y-46700960D02*
X8059491Y-46691436D01*
X8059491Y-46691436D02*
X8069015Y-46672388D01*
X8069015Y-46672388D02*
X8069015Y-46634293D01*
X8069015Y-46634293D02*
X8059491Y-46615246D01*
X8059491Y-46615246D02*
X8049968Y-46605722D01*
X8049968Y-46605722D02*
X8030920Y-46596198D01*
X8307110Y-46710484D02*
X8307110Y-46510484D01*
X8392825Y-46710484D02*
X8392825Y-46605722D01*
X8392825Y-46605722D02*
X8383301Y-46586674D01*
X8383301Y-46586674D02*
X8364253Y-46577150D01*
X8364253Y-46577150D02*
X8335682Y-46577150D01*
X8335682Y-46577150D02*
X8316634Y-46586674D01*
X8316634Y-46586674D02*
X8307110Y-46596198D01*
X8516634Y-46710484D02*
X8497587Y-46700960D01*
X8497587Y-46700960D02*
X8488063Y-46691436D01*
X8488063Y-46691436D02*
X8478539Y-46672388D01*
X8478539Y-46672388D02*
X8478539Y-46615246D01*
X8478539Y-46615246D02*
X8488063Y-46596198D01*
X8488063Y-46596198D02*
X8497587Y-46586674D01*
X8497587Y-46586674D02*
X8516634Y-46577150D01*
X8516634Y-46577150D02*
X8545206Y-46577150D01*
X8545206Y-46577150D02*
X8564253Y-46586674D01*
X8564253Y-46586674D02*
X8573777Y-46596198D01*
X8573777Y-46596198D02*
X8583301Y-46615246D01*
X8583301Y-46615246D02*
X8583301Y-46672388D01*
X8583301Y-46672388D02*
X8573777Y-46691436D01*
X8573777Y-46691436D02*
X8564253Y-46700960D01*
X8564253Y-46700960D02*
X8545206Y-46710484D01*
X8545206Y-46710484D02*
X8516634Y-46710484D01*
X8697587Y-46710484D02*
X8678539Y-46700960D01*
X8678539Y-46700960D02*
X8669015Y-46681912D01*
X8669015Y-46681912D02*
X8669015Y-46510484D01*
X8849968Y-46700960D02*
X8830920Y-46710484D01*
X8830920Y-46710484D02*
X8792825Y-46710484D01*
X8792825Y-46710484D02*
X8773777Y-46700960D01*
X8773777Y-46700960D02*
X8764253Y-46681912D01*
X8764253Y-46681912D02*
X8764253Y-46605722D01*
X8764253Y-46605722D02*
X8773777Y-46586674D01*
X8773777Y-46586674D02*
X8792825Y-46577150D01*
X8792825Y-46577150D02*
X8830920Y-46577150D01*
X8830920Y-46577150D02*
X8849968Y-46586674D01*
X8849968Y-46586674D02*
X8859492Y-46605722D01*
X8859492Y-46605722D02*
X8859492Y-46624769D01*
X8859492Y-46624769D02*
X8764253Y-46643817D01*
X8935682Y-46700960D02*
X8954730Y-46710484D01*
X8954730Y-46710484D02*
X8992825Y-46710484D01*
X8992825Y-46710484D02*
X9011873Y-46700960D01*
X9011873Y-46700960D02*
X9021396Y-46681912D01*
X9021396Y-46681912D02*
X9021396Y-46672388D01*
X9021396Y-46672388D02*
X9011873Y-46653341D01*
X9011873Y-46653341D02*
X8992825Y-46643817D01*
X8992825Y-46643817D02*
X8964253Y-46643817D01*
X8964253Y-46643817D02*
X8945206Y-46634293D01*
X8945206Y-46634293D02*
X8935682Y-46615246D01*
X8935682Y-46615246D02*
X8935682Y-46605722D01*
X8935682Y-46605722D02*
X8945206Y-46586674D01*
X8945206Y-46586674D02*
X8964253Y-46577150D01*
X8964253Y-46577150D02*
X8992825Y-46577150D01*
X8992825Y-46577150D02*
X9011873Y-46586674D01*
X9088063Y-46786674D02*
X9097587Y-46777150D01*
X9097587Y-46777150D02*
X9116634Y-46748579D01*
X9116634Y-46748579D02*
X9126158Y-46729531D01*
X9126158Y-46729531D02*
X9135682Y-46700960D01*
X9135682Y-46700960D02*
X9145206Y-46653341D01*
X9145206Y-46653341D02*
X9145206Y-46615246D01*
X9145206Y-46615246D02*
X9135682Y-46567627D01*
X9135682Y-46567627D02*
X9126158Y-46539055D01*
X9126158Y-46539055D02*
X9116634Y-46520008D01*
X9116634Y-46520008D02*
X9097587Y-46491436D01*
X9097587Y-46491436D02*
X9088063Y-46481912D01*
M02*
